<svg width="518" height="472" viewBox="0 0 518 472" fill="none" xmlns="http://www.w3.org/2000/svg">
<g clip-path="url(#clip0_1208_389)">
<rect x="44" width="420" height="112" rx="4" fill="#D9D9D9"/>
<path d="M83.3119 84.359C83.3119 85.035 83.2122 85.672 83.0129 86.27C82.8135 86.8593 82.5232 87.375 82.1419 87.817C81.7692 88.2503 81.3099 88.5927 80.7639 88.844C80.2179 89.0953 79.5982 89.221 78.9049 89.221C78.2115 89.221 77.5875 89.0953 77.0329 88.844C76.4869 88.5927 76.0232 88.2503 75.6419 87.817C75.2692 87.375 74.9832 86.8593 74.7839 86.27C74.5845 85.672 74.4849 85.035 74.4849 84.359C74.4849 83.683 74.5845 83.0503 74.7839 82.461C74.9832 81.863 75.2692 81.3473 75.6419 80.914C76.0232 80.472 76.4869 80.1253 77.0329 79.874C77.5875 79.6227 78.2115 79.497 78.9049 79.497C79.5982 79.497 80.2179 79.6227 80.7639 79.874C81.3099 80.1253 81.7692 80.472 82.1419 80.914C82.5232 81.3473 82.8135 81.863 83.0129 82.461C83.2122 83.0503 83.3119 83.683 83.3119 84.359ZM75.0569 84.359C75.0569 84.957 75.1435 85.5203 75.3169 86.049C75.4902 86.5777 75.7415 87.0413 76.0709 87.44C76.4002 87.83 76.8032 88.142 77.2799 88.376C77.7565 88.61 78.2982 88.727 78.9049 88.727C79.5115 88.727 80.0489 88.61 80.5169 88.376C80.9935 88.142 81.3965 87.83 81.7259 87.44C82.0552 87.0413 82.3065 86.5777 82.4799 86.049C82.6532 85.5203 82.7399 84.957 82.7399 84.359C82.7399 83.761 82.6532 83.1977 82.4799 82.669C82.3065 82.1403 82.0552 81.681 81.7259 81.291C81.3965 80.8923 80.9935 80.576 80.5169 80.342C80.0489 80.108 79.5115 79.991 78.9049 79.991C78.2982 79.991 77.7565 80.108 77.2799 80.342C76.8032 80.576 76.4002 80.8923 76.0709 81.291C75.7415 81.681 75.4902 82.1403 75.3169 82.669C75.1435 83.1977 75.0569 83.761 75.0569 84.359ZM84.9266 79.718H85.6416L91.5046 88.233H91.5306V79.718H92.1026V89H91.4266L85.5246 80.42H85.4986V89H84.9266V79.718Z" fill="#242424"/>
<path d="M132.253 79.718H138.077V80.212H132.825V83.93H137.557V84.424H132.825V89H132.253V79.718ZM139.321 79.718H139.893V89H139.321V79.718ZM141.92 79.718H142.492V88.506H147.757V89H141.92V79.718ZM146.4 80.212V79.718H153.511V80.212H150.235V89H149.663V80.212H146.4ZM154.532 79.718H160.772V80.212H155.104V83.93H160.434V84.424H155.104V88.506H160.837V89H154.532V79.718ZM162.196 79.718H166.07C166.478 79.718 166.859 79.7613 167.214 79.848C167.57 79.926 167.882 80.0603 168.15 80.251C168.419 80.433 168.627 80.6757 168.774 80.979C168.93 81.2823 169.008 81.6593 169.008 82.11C169.008 82.734 168.831 83.2627 168.475 83.696C168.129 84.1207 167.643 84.385 167.019 84.489V84.515C167.444 84.567 167.778 84.6797 168.02 84.853C168.272 85.0263 168.458 85.2387 168.579 85.49C168.701 85.7413 168.779 86.0187 168.813 86.322C168.848 86.6253 168.865 86.9287 168.865 87.232C168.865 87.414 168.865 87.5917 168.865 87.765C168.865 87.9383 168.874 88.103 168.891 88.259C168.909 88.4063 168.935 88.545 168.969 88.675C169.013 88.805 169.069 88.9133 169.138 89H168.501C168.38 88.7833 168.311 88.532 168.293 88.246C168.285 87.9513 168.28 87.648 168.28 87.336C168.28 87.024 168.267 86.7163 168.241 86.413C168.215 86.101 168.133 85.8237 167.994 85.581C167.856 85.3383 167.635 85.1433 167.331 84.996C167.037 84.8487 166.616 84.775 166.07 84.775H162.768V89H162.196V79.718ZM166.07 84.281C166.408 84.281 166.72 84.242 167.006 84.164C167.301 84.0773 167.552 83.9473 167.76 83.774C167.968 83.6007 168.133 83.3797 168.254 83.111C168.376 82.8423 168.436 82.5217 168.436 82.149C168.436 81.8023 168.371 81.5077 168.241 81.265C168.111 81.0137 167.938 80.81 167.721 80.654C167.505 80.498 167.253 80.3853 166.967 80.316C166.681 80.2467 166.382 80.212 166.07 80.212H162.768V84.281H166.07Z" fill="#242424"/>
<path d="M194.103 79.718H200.343V80.212H194.675V83.93H200.005V84.424H194.675V88.506H200.408V89H194.103V79.718ZM201.768 79.718H207.592V80.212H202.34V83.93H207.072V84.424H202.34V89H201.768V79.718ZM208.835 79.718H214.659V80.212H209.407V83.93H214.139V84.424H209.407V89H208.835V79.718ZM215.903 79.718H222.143V80.212H216.475V83.93H221.805V84.424H216.475V88.506H222.208V89H215.903V79.718ZM223.217 84.359C223.217 83.683 223.316 83.0503 223.516 82.461C223.715 81.863 224.001 81.3473 224.374 80.914C224.755 80.472 225.219 80.1253 225.765 79.874C226.319 79.6227 226.943 79.497 227.637 79.497C228.183 79.497 228.655 79.5707 229.054 79.718C229.452 79.8567 229.786 80.0343 230.055 80.251C230.332 80.459 230.557 80.6887 230.731 80.94C230.904 81.1913 231.034 81.4297 231.121 81.655C231.216 81.8717 231.281 82.0623 231.316 82.227C231.35 82.383 231.368 82.4697 231.368 82.487H230.796C230.735 82.097 230.609 81.7503 230.419 81.447C230.228 81.135 229.99 80.8707 229.704 80.654C229.418 80.4373 229.097 80.2727 228.742 80.16C228.395 80.0473 228.027 79.991 227.637 79.991C227.03 79.991 226.488 80.108 226.012 80.342C225.535 80.576 225.132 80.8923 224.803 81.291C224.473 81.681 224.222 82.1403 224.049 82.669C223.875 83.1977 223.789 83.761 223.789 84.359C223.789 84.957 223.875 85.5203 224.049 86.049C224.222 86.5777 224.473 87.0413 224.803 87.44C225.132 87.83 225.535 88.142 226.012 88.376C226.488 88.61 227.03 88.727 227.637 88.727C228.087 88.727 228.508 88.636 228.898 88.454C229.296 88.2633 229.643 88.0163 229.938 87.713C230.232 87.401 230.466 87.0457 230.64 86.647C230.822 86.2397 230.926 85.8193 230.952 85.386H231.524C231.472 85.9407 231.333 86.452 231.108 86.92C230.891 87.388 230.609 87.7953 230.263 88.142C229.925 88.48 229.53 88.7443 229.08 88.935C228.629 89.1257 228.148 89.221 227.637 89.221C226.943 89.221 226.319 89.0953 225.765 88.844C225.219 88.5927 224.755 88.2503 224.374 87.817C224.001 87.375 223.715 86.8593 223.516 86.27C223.316 85.672 223.217 85.035 223.217 84.359ZM231.793 80.212V79.718H238.904V80.212H235.628V89H235.056V80.212H231.793Z" fill="#242424"/>
<g filter="url(#filter0_d_1208_389)">
<circle cx="83.5" cy="55.5" r="12.5" fill="#53F1A2"/>
</g>
<g filter="url(#filter1_d_1208_389)">
<circle cx="150.5" cy="55.5" r="12.5" fill="#53F1A2"/>
</g>
<g filter="url(#filter2_d_1208_389)">
<circle cx="216.5" cy="55.5" r="12.5" fill="#53F1A2"/>
</g>
<ellipse cx="313" cy="55.5" rx="37" ry="36.5" fill="white"/>
<ellipse cx="407" cy="55.5" rx="37" ry="36.5" fill="white"/>
<line x1="279.5" y1="94" x2="279.5" y2="103" stroke="#242424"/>
<line x1="338.5" y1="94" x2="338.5" y2="103" stroke="#242424"/>
<path d="M349.5 98.5C349.5 100.766 347.879 102.5 346 102.5C344.121 102.5 342.5 100.766 342.5 98.5C342.5 96.2339 344.121 94.5 346 94.5C347.879 94.5 349.5 96.2339 349.5 98.5Z" stroke="#242424"/>
<line x1="373.5" y1="94" x2="373.5" y2="103" stroke="#242424"/>
<line x1="432.5" y1="94" x2="432.5" y2="103" stroke="#242424"/>
<path d="M443.5 98.5C443.5 100.766 441.879 102.5 440 102.5C438.121 102.5 436.5 100.766 436.5 98.5C436.5 96.2339 438.121 94.5 440 94.5C441.879 94.5 443.5 96.2339 443.5 98.5Z" stroke="#242424"/>
<rect y="162" width="200" height="310" rx="30" fill="#D9D9D9"/>
<circle cx="100.5" cy="372.5" r="71.5" fill="#F3F3F3"/>
<circle cx="100.5" cy="372.5" r="24.5" fill="#D9D9D9"/>
<rect x="25" y="187" width="151" height="98" rx="7" fill="#818181"/>
<rect x="254" y="170" width="265" height="302" rx="10" fill="#D9D9D9"/>
<circle cx="284" cy="344" r="4" fill="#818181"/>
<circle cx="297.667" cy="344" r="4" fill="#818181"/>
<circle cx="311.333" cy="344" r="4" fill="#818181"/>
<circle cx="325" cy="344" r="4" fill="#818181"/>
<circle cx="338.667" cy="344" r="4" fill="#818181"/>
<circle cx="352.333" cy="344" r="4" fill="#818181"/>
<circle cx="366" cy="344" r="4" fill="#818181"/>
<circle cx="379.667" cy="344" r="4" fill="#818181"/>
<circle cx="393.333" cy="344" r="4" fill="#818181"/>
<circle cx="407" cy="344" r="4" fill="#818181"/>
<circle cx="420.667" cy="344" r="4" fill="#818181"/>
<circle cx="434.333" cy="344" r="4" fill="#818181"/>
<circle cx="448" cy="344" r="4" fill="#818181"/>
<circle cx="461.667" cy="344" r="4" fill="#818181"/>
<circle cx="475.333" cy="344" r="4" fill="#818181"/>
<circle cx="489" cy="344" r="4" fill="#818181"/>
<circle cx="284" cy="357" r="4" fill="#818181"/>
<circle cx="297.667" cy="357" r="4" fill="#818181"/>
<circle cx="311.333" cy="357" r="4" fill="#818181"/>
<circle cx="325" cy="357" r="4" fill="#818181"/>
<circle cx="338.667" cy="357" r="4" fill="#818181"/>
<circle cx="352.333" cy="357" r="4" fill="#818181"/>
<circle cx="366" cy="357" r="4" fill="#818181"/>
<circle cx="379.667" cy="357" r="4" fill="#818181"/>
<circle cx="393.333" cy="357" r="4" fill="#818181"/>
<circle cx="407" cy="357" r="4" fill="#818181"/>
<circle cx="420.667" cy="357" r="4" fill="#818181"/>
<circle cx="434.333" cy="357" r="4" fill="#818181"/>
<circle cx="448" cy="357" r="4" fill="#818181"/>
<circle cx="461.667" cy="357" r="4" fill="#818181"/>
<circle cx="475.333" cy="357" r="4" fill="#818181"/>
<circle cx="489" cy="357" r="4" fill="#818181"/>
<circle cx="284" cy="370" r="4" fill="#818181"/>
<circle cx="297.667" cy="370" r="4" fill="#818181"/>
<circle cx="311.333" cy="370" r="4" fill="#818181"/>
<circle cx="325" cy="370" r="4" fill="#818181"/>
<circle cx="338.667" cy="370" r="4" fill="#818181"/>
<circle cx="352.333" cy="370" r="4" fill="#818181"/>
<circle cx="366" cy="370" r="4" fill="#818181"/>
<circle cx="379.667" cy="370" r="4" fill="#818181"/>
<circle cx="393.333" cy="370" r="4" fill="#818181"/>
<circle cx="407" cy="370" r="4" fill="#818181"/>
<circle cx="420.667" cy="370" r="4" fill="#818181"/>
<circle cx="434.333" cy="370" r="4" fill="#818181"/>
<circle cx="448" cy="370" r="4" fill="#818181"/>
<circle cx="461.667" cy="370" r="4" fill="#818181"/>
<circle cx="475.333" cy="370" r="4" fill="#818181"/>
<circle cx="489" cy="370" r="4" fill="#818181"/>
<circle cx="284" cy="383" r="4" fill="#818181"/>
<circle cx="297.667" cy="383" r="4" fill="#818181"/>
<circle cx="311.333" cy="383" r="4" fill="#818181"/>
<circle cx="325" cy="383" r="4" fill="#818181"/>
<circle cx="338.667" cy="383" r="4" fill="#818181"/>
<circle cx="352.333" cy="383" r="4" fill="#818181"/>
<circle cx="366" cy="383" r="4" fill="#818181"/>
<circle cx="379.667" cy="383" r="4" fill="#818181"/>
<circle cx="393.333" cy="383" r="4" fill="#818181"/>
<circle cx="407" cy="383" r="4" fill="#818181"/>
<circle cx="420.667" cy="383" r="4" fill="#818181"/>
<circle cx="434.333" cy="383" r="4" fill="#818181"/>
<circle cx="448" cy="383" r="4" fill="#818181"/>
<circle cx="461.667" cy="383" r="4" fill="#818181"/>
<circle cx="475.333" cy="383" r="4" fill="#818181"/>
<circle cx="489" cy="383" r="4" fill="#818181"/>
<circle cx="284" cy="396" r="4" fill="#818181"/>
<circle cx="297.667" cy="396" r="4" fill="#818181"/>
<circle cx="311.333" cy="396" r="4" fill="#818181"/>
<circle cx="325" cy="396" r="4" fill="#818181"/>
<circle cx="338.667" cy="396" r="4" fill="#818181"/>
<circle cx="352.333" cy="396" r="4" fill="#818181"/>
<circle cx="366" cy="396" r="4" fill="#818181"/>
<circle cx="379.667" cy="396" r="4" fill="#818181"/>
<circle cx="393.333" cy="396" r="4" fill="#818181"/>
<circle cx="407" cy="396" r="4" fill="#818181"/>
<circle cx="420.667" cy="396" r="4" fill="#818181"/>
<circle cx="434.333" cy="396" r="4" fill="#818181"/>
<circle cx="448" cy="396" r="4" fill="#818181"/>
<circle cx="461.667" cy="396" r="4" fill="#818181"/>
<circle cx="475.333" cy="396" r="4" fill="#818181"/>
<circle cx="489" cy="396" r="4" fill="#818181"/>
<circle cx="284" cy="409" r="4" fill="#818181"/>
<circle cx="297.667" cy="409" r="4" fill="#818181"/>
<circle cx="311.333" cy="409" r="4" fill="#818181"/>
<circle cx="325" cy="409" r="4" fill="#818181"/>
<circle cx="338.667" cy="409" r="4" fill="#818181"/>
<circle cx="352.333" cy="409" r="4" fill="#818181"/>
<circle cx="366" cy="409" r="4" fill="#818181"/>
<circle cx="379.667" cy="409" r="4" fill="#818181"/>
<circle cx="393.333" cy="409" r="4" fill="#818181"/>
<circle cx="407" cy="409" r="4" fill="#818181"/>
<circle cx="420.667" cy="409" r="4" fill="#818181"/>
<circle cx="434.333" cy="409" r="4" fill="#818181"/>
<circle cx="448" cy="409" r="4" fill="#818181"/>
<circle cx="461.667" cy="409" r="4" fill="#818181"/>
<circle cx="475.333" cy="409" r="4" fill="#818181"/>
<circle cx="489" cy="409" r="4" fill="#818181"/>
<circle cx="284" cy="422" r="4" fill="#818181"/>
<circle cx="297.667" cy="422" r="4" fill="#818181"/>
<circle cx="311.333" cy="422" r="4" fill="#818181"/>
<circle cx="325" cy="422" r="4" fill="#818181"/>
<circle cx="338.667" cy="422" r="4" fill="#818181"/>
<circle cx="352.333" cy="422" r="4" fill="#818181"/>
<circle cx="366" cy="422" r="4" fill="#818181"/>
<circle cx="379.667" cy="422" r="4" fill="#818181"/>
<circle cx="393.333" cy="422" r="4" fill="#818181"/>
<circle cx="407" cy="422" r="4" fill="#818181"/>
<circle cx="420.667" cy="422" r="4" fill="#818181"/>
<circle cx="434.333" cy="422" r="4" fill="#818181"/>
<circle cx="448" cy="422" r="4" fill="#818181"/>
<circle cx="461.667" cy="422" r="4" fill="#818181"/>
<circle cx="475.333" cy="422" r="4" fill="#818181"/>
<circle cx="489" cy="422" r="4" fill="#818181"/>
<circle cx="284" cy="435" r="4" fill="#818181"/>
<circle cx="297.667" cy="435" r="4" fill="#818181"/>
<circle cx="311.333" cy="435" r="4" fill="#818181"/>
<circle cx="325" cy="435" r="4" fill="#818181"/>
<circle cx="338.667" cy="435" r="4" fill="#818181"/>
<circle cx="352.333" cy="435" r="4" fill="#818181"/>
<circle cx="366" cy="435" r="4" fill="#818181"/>
<circle cx="379.667" cy="435" r="4" fill="#818181"/>
<circle cx="393.333" cy="435" r="4" fill="#818181"/>
<circle cx="407" cy="435" r="4" fill="#818181"/>
<circle cx="420.667" cy="435" r="4" fill="#818181"/>
<circle cx="434.333" cy="435" r="4" fill="#818181"/>
<circle cx="448" cy="435" r="4" fill="#818181"/>
<circle cx="461.667" cy="435" r="4" fill="#818181"/>
<circle cx="475.333" cy="435" r="4" fill="#818181"/>
<circle cx="489" cy="435" r="4" fill="#818181"/>
<rect x="274" y="199" width="119" height="71" rx="4" fill="white"/>
<line x1="279" y1="233.5" x2="386" y2="233.5" stroke="#D9D9D9"/>
<line x1="288.5" y1="225" x2="288.5" y2="242" stroke="#D9D9D9"/>
<line x1="303.5" y1="225" x2="303.5" y2="242" stroke="#D9D9D9"/>
<line x1="318.5" y1="225" x2="318.5" y2="242" stroke="#D9D9D9"/>
<line x1="333.5" y1="225" x2="333.5" y2="242" stroke="#D9D9D9"/>
<line x1="348.5" y1="225" x2="348.5" y2="242" stroke="#D9D9D9"/>
<line x1="363.5" y1="225" x2="363.5" y2="242" stroke="#D9D9D9"/>
<line x1="378.5" y1="225" x2="378.5" y2="242" stroke="#D9D9D9"/>
<line x1="307.5" y1="205" x2="307.5" y2="261" stroke="#818181"/>
<line x1="483.064" y1="265.825" x2="483.064" y2="274.042" stroke="#818181"/>
<path d="M493.02 269.933C493.02 271.983 491.555 273.542 489.868 273.542C488.181 273.542 486.716 271.983 486.716 269.933C486.716 267.883 488.181 266.325 489.868 266.325C491.555 266.325 493.02 267.883 493.02 269.933Z" stroke="#818181"/>
<line x1="429.197" y1="265.825" x2="429.197" y2="274.042" stroke="#818181"/>
<ellipse cx="457" cy="232.5" rx="32.8682" ry="32.4117" transform="rotate(-49.3851 457 232.5)" fill="white"/>
<line x1="442.467" y1="220.696" x2="432.071" y2="211.781" stroke="#D9D9D9"/>
</g>
<defs>
<filter id="filter0_d_1208_389" x="56" y="28" width="55" height="55" filterUnits="userSpaceOnUse" color-interpolation-filters="sRGB">
<feFlood flood-opacity="0" result="BackgroundImageFix"/>
<feColorMatrix in="SourceAlpha" type="matrix" values="0 0 0 0 0 0 0 0 0 0 0 0 0 0 0 0 0 0 127 0" result="hardAlpha"/>
<feMorphology radius="3" operator="dilate" in="SourceAlpha" result="effect1_dropShadow_1208_389"/>
<feOffset/>
<feGaussianBlur stdDeviation="6"/>
<feComposite in2="hardAlpha" operator="out"/>
<feColorMatrix type="matrix" values="0 0 0 0 0.604863 0 0 0 0 0.945098 0 0 0 0 0.77498 0 0 0 1 0"/>
<feBlend mode="normal" in2="BackgroundImageFix" result="effect1_dropShadow_1208_389"/>
<feBlend mode="normal" in="SourceGraphic" in2="effect1_dropShadow_1208_389" result="shape"/>
</filter>
<filter id="filter1_d_1208_389" x="123" y="28" width="55" height="55" filterUnits="userSpaceOnUse" color-interpolation-filters="sRGB">
<feFlood flood-opacity="0" result="BackgroundImageFix"/>
<feColorMatrix in="SourceAlpha" type="matrix" values="0 0 0 0 0 0 0 0 0 0 0 0 0 0 0 0 0 0 127 0" result="hardAlpha"/>
<feMorphology radius="3" operator="dilate" in="SourceAlpha" result="effect1_dropShadow_1208_389"/>
<feOffset/>
<feGaussianBlur stdDeviation="6"/>
<feComposite in2="hardAlpha" operator="out"/>
<feColorMatrix type="matrix" values="0 0 0 0 0.604863 0 0 0 0 0.945098 0 0 0 0 0.77498 0 0 0 1 0"/>
<feBlend mode="normal" in2="BackgroundImageFix" result="effect1_dropShadow_1208_389"/>
<feBlend mode="normal" in="SourceGraphic" in2="effect1_dropShadow_1208_389" result="shape"/>
</filter>
<filter id="filter2_d_1208_389" x="189" y="28" width="55" height="55" filterUnits="userSpaceOnUse" color-interpolation-filters="sRGB">
<feFlood flood-opacity="0" result="BackgroundImageFix"/>
<feColorMatrix in="SourceAlpha" type="matrix" values="0 0 0 0 0 0 0 0 0 0 0 0 0 0 0 0 0 0 127 0" result="hardAlpha"/>
<feMorphology radius="3" operator="dilate" in="SourceAlpha" result="effect1_dropShadow_1208_389"/>
<feOffset/>
<feGaussianBlur stdDeviation="6"/>
<feComposite in2="hardAlpha" operator="out"/>
<feColorMatrix type="matrix" values="0 0 0 0 0.604863 0 0 0 0 0.945098 0 0 0 0 0.77498 0 0 0 1 0"/>
<feBlend mode="normal" in2="BackgroundImageFix" result="effect1_dropShadow_1208_389"/>
<feBlend mode="normal" in="SourceGraphic" in2="effect1_dropShadow_1208_389" result="shape"/>
</filter>
<clipPath id="clip0_1208_389">
<rect width="518" height="472" fill="white"/>
</clipPath>
</defs>
</svg>
