<svg width="651" height="588" viewBox="0 0 651 588" fill="none" xmlns="http://www.w3.org/2000/svg">
<rect x="115" y="39" width="420" height="112" rx="4" fill="#D9D9D9"/>
<path d="M154.312 123.359C154.312 124.035 154.212 124.672 154.013 125.27C153.814 125.859 153.523 126.375 153.142 126.817C152.769 127.25 152.31 127.593 151.764 127.844C151.218 128.095 150.598 128.221 149.905 128.221C149.212 128.221 148.588 128.095 148.033 127.844C147.487 127.593 147.023 127.25 146.642 126.817C146.269 126.375 145.983 125.859 145.784 125.27C145.585 124.672 145.485 124.035 145.485 123.359C145.485 122.683 145.585 122.05 145.784 121.461C145.983 120.863 146.269 120.347 146.642 119.914C147.023 119.472 147.487 119.125 148.033 118.874C148.588 118.623 149.212 118.497 149.905 118.497C150.598 118.497 151.218 118.623 151.764 118.874C152.31 119.125 152.769 119.472 153.142 119.914C153.523 120.347 153.814 120.863 154.013 121.461C154.212 122.05 154.312 122.683 154.312 123.359ZM146.057 123.359C146.057 123.957 146.144 124.52 146.317 125.049C146.49 125.578 146.742 126.041 147.071 126.44C147.4 126.83 147.803 127.142 148.28 127.376C148.757 127.61 149.298 127.727 149.905 127.727C150.512 127.727 151.049 127.61 151.517 127.376C151.994 127.142 152.397 126.83 152.726 126.44C153.055 126.041 153.307 125.578 153.48 125.049C153.653 124.52 153.74 123.957 153.74 123.359C153.74 122.761 153.653 122.198 153.48 121.669C153.307 121.14 153.055 120.681 152.726 120.291C152.397 119.892 151.994 119.576 151.517 119.342C151.049 119.108 150.512 118.991 149.905 118.991C149.298 118.991 148.757 119.108 148.28 119.342C147.803 119.576 147.4 119.892 147.071 120.291C146.742 120.681 146.49 121.14 146.317 121.669C146.144 122.198 146.057 122.761 146.057 123.359ZM155.927 118.718H156.642L162.505 127.233H162.531V118.718H163.103V128H162.427L156.525 119.42H156.499V128H155.927V118.718Z" fill="#242424"/>
<path d="M203.253 118.718H209.077V119.212H203.825V122.93H208.557V123.424H203.825V128H203.253V118.718ZM210.321 118.718H210.893V128H210.321V118.718ZM212.92 118.718H213.492V127.506H218.757V128H212.92V118.718ZM217.4 119.212V118.718H224.511V119.212H221.235V128H220.663V119.212H217.4ZM225.532 118.718H231.772V119.212H226.104V122.93H231.434V123.424H226.104V127.506H231.837V128H225.532V118.718ZM233.196 118.718H237.07C237.478 118.718 237.859 118.761 238.214 118.848C238.57 118.926 238.882 119.06 239.15 119.251C239.419 119.433 239.627 119.676 239.774 119.979C239.93 120.282 240.008 120.659 240.008 121.11C240.008 121.734 239.831 122.263 239.475 122.696C239.129 123.121 238.643 123.385 238.019 123.489V123.515C238.444 123.567 238.778 123.68 239.02 123.853C239.272 124.026 239.458 124.239 239.579 124.49C239.701 124.741 239.779 125.019 239.813 125.322C239.848 125.625 239.865 125.929 239.865 126.232C239.865 126.414 239.865 126.592 239.865 126.765C239.865 126.938 239.874 127.103 239.891 127.259C239.909 127.406 239.935 127.545 239.969 127.675C240.013 127.805 240.069 127.913 240.138 128H239.501C239.38 127.783 239.311 127.532 239.293 127.246C239.285 126.951 239.28 126.648 239.28 126.336C239.28 126.024 239.267 125.716 239.241 125.413C239.215 125.101 239.133 124.824 238.994 124.581C238.856 124.338 238.635 124.143 238.331 123.996C238.037 123.849 237.616 123.775 237.07 123.775H233.768V128H233.196V118.718ZM237.07 123.281C237.408 123.281 237.72 123.242 238.006 123.164C238.301 123.077 238.552 122.947 238.76 122.774C238.968 122.601 239.133 122.38 239.254 122.111C239.376 121.842 239.436 121.522 239.436 121.149C239.436 120.802 239.371 120.508 239.241 120.265C239.111 120.014 238.938 119.81 238.721 119.654C238.505 119.498 238.253 119.385 237.967 119.316C237.681 119.247 237.382 119.212 237.07 119.212H233.768V123.281H237.07Z" fill="#242424"/>
<path d="M265.103 118.718H271.343V119.212H265.675V122.93H271.005V123.424H265.675V127.506H271.408V128H265.103V118.718ZM272.768 118.718H278.592V119.212H273.34V122.93H278.072V123.424H273.34V128H272.768V118.718ZM279.835 118.718H285.659V119.212H280.407V122.93H285.139V123.424H280.407V128H279.835V118.718ZM286.903 118.718H293.143V119.212H287.475V122.93H292.805V123.424H287.475V127.506H293.208V128H286.903V118.718ZM294.217 123.359C294.217 122.683 294.316 122.05 294.516 121.461C294.715 120.863 295.001 120.347 295.374 119.914C295.755 119.472 296.219 119.125 296.765 118.874C297.319 118.623 297.943 118.497 298.637 118.497C299.183 118.497 299.655 118.571 300.054 118.718C300.452 118.857 300.786 119.034 301.055 119.251C301.332 119.459 301.557 119.689 301.731 119.94C301.904 120.191 302.034 120.43 302.121 120.655C302.216 120.872 302.281 121.062 302.316 121.227C302.35 121.383 302.368 121.47 302.368 121.487H301.796C301.735 121.097 301.609 120.75 301.419 120.447C301.228 120.135 300.99 119.871 300.704 119.654C300.418 119.437 300.097 119.273 299.742 119.16C299.395 119.047 299.027 118.991 298.637 118.991C298.03 118.991 297.488 119.108 297.012 119.342C296.535 119.576 296.132 119.892 295.803 120.291C295.473 120.681 295.222 121.14 295.049 121.669C294.875 122.198 294.789 122.761 294.789 123.359C294.789 123.957 294.875 124.52 295.049 125.049C295.222 125.578 295.473 126.041 295.803 126.44C296.132 126.83 296.535 127.142 297.012 127.376C297.488 127.61 298.03 127.727 298.637 127.727C299.087 127.727 299.508 127.636 299.898 127.454C300.296 127.263 300.643 127.016 300.938 126.713C301.232 126.401 301.466 126.046 301.64 125.647C301.822 125.24 301.926 124.819 301.952 124.386H302.524C302.472 124.941 302.333 125.452 302.108 125.92C301.891 126.388 301.609 126.795 301.263 127.142C300.925 127.48 300.53 127.744 300.08 127.935C299.629 128.126 299.148 128.221 298.637 128.221C297.943 128.221 297.319 128.095 296.765 127.844C296.219 127.593 295.755 127.25 295.374 126.817C295.001 126.375 294.715 125.859 294.516 125.27C294.316 124.672 294.217 124.035 294.217 123.359ZM302.793 119.212V118.718H309.904V119.212H306.628V128H306.056V119.212H302.793Z" fill="#242424"/>
<g filter="url(#filter0_d_1208_389)">
<circle cx="154.5" cy="94.5" r="12.5" fill="#53F1A2"/>
</g>
<g filter="url(#filter1_d_1208_389)">
<circle cx="221.5" cy="94.5" r="12.5" fill="#53F1A2"/>
</g>
<g filter="url(#filter2_d_1208_389)">
<circle cx="287.5" cy="94.5" r="12.5" fill="#53F1A2"/>
</g>
<ellipse cx="384" cy="94.5" rx="37" ry="36.5" fill="white"/>
<ellipse cx="478" cy="94.5" rx="37" ry="36.5" fill="white"/>
<line x1="350.5" y1="133" x2="350.5" y2="142" stroke="#242424"/>
<line x1="409.5" y1="133" x2="409.5" y2="142" stroke="#242424"/>
<path d="M420.5 137.5C420.5 139.766 418.879 141.5 417 141.5C415.121 141.5 413.5 139.766 413.5 137.5C413.5 135.234 415.121 133.5 417 133.5C418.879 133.5 420.5 135.234 420.5 137.5Z" stroke="#242424"/>
<line x1="444.5" y1="133" x2="444.5" y2="142" stroke="#242424"/>
<line x1="503.5" y1="133" x2="503.5" y2="142" stroke="#242424"/>
<path d="M514.5 137.5C514.5 139.766 512.879 141.5 511 141.5C509.121 141.5 507.5 139.766 507.5 137.5C507.5 135.234 509.121 133.5 511 133.5C512.879 133.5 514.5 135.234 514.5 137.5Z" stroke="#242424"/>
<rect x="71" y="201" width="200" height="310" rx="30" fill="#D9D9D9"/>
<circle cx="171.5" cy="411.5" r="71.5" fill="#F3F3F3"/>
<circle cx="171.5" cy="411.5" r="24.5" fill="#D9D9D9"/>
<rect x="96" y="226" width="151" height="98" rx="7" fill="#818181"/>
<rect x="325" y="209" width="265" height="302" rx="10" fill="#D9D9D9"/>
<circle cx="355" cy="383" r="4" fill="#818181"/>
<circle cx="368.667" cy="383" r="4" fill="#818181"/>
<circle cx="382.333" cy="383" r="4" fill="#818181"/>
<circle cx="396" cy="383" r="4" fill="#818181"/>
<circle cx="409.667" cy="383" r="4" fill="#818181"/>
<circle cx="423.333" cy="383" r="4" fill="#818181"/>
<circle cx="437" cy="383" r="4" fill="#818181"/>
<circle cx="450.667" cy="383" r="4" fill="#818181"/>
<circle cx="464.333" cy="383" r="4" fill="#818181"/>
<circle cx="478" cy="383" r="4" fill="#818181"/>
<circle cx="491.667" cy="383" r="4" fill="#818181"/>
<circle cx="505.333" cy="383" r="4" fill="#818181"/>
<circle cx="519" cy="383" r="4" fill="#818181"/>
<circle cx="532.667" cy="383" r="4" fill="#818181"/>
<circle cx="546.333" cy="383" r="4" fill="#818181"/>
<circle cx="560" cy="383" r="4" fill="#818181"/>
<circle cx="355" cy="396" r="4" fill="#818181"/>
<circle cx="368.667" cy="396" r="4" fill="#818181"/>
<circle cx="382.333" cy="396" r="4" fill="#818181"/>
<circle cx="396" cy="396" r="4" fill="#818181"/>
<circle cx="409.667" cy="396" r="4" fill="#818181"/>
<circle cx="423.333" cy="396" r="4" fill="#818181"/>
<circle cx="437" cy="396" r="4" fill="#818181"/>
<circle cx="450.667" cy="396" r="4" fill="#818181"/>
<circle cx="464.333" cy="396" r="4" fill="#818181"/>
<circle cx="478" cy="396" r="4" fill="#818181"/>
<circle cx="491.667" cy="396" r="4" fill="#818181"/>
<circle cx="505.333" cy="396" r="4" fill="#818181"/>
<circle cx="519" cy="396" r="4" fill="#818181"/>
<circle cx="532.667" cy="396" r="4" fill="#818181"/>
<circle cx="546.333" cy="396" r="4" fill="#818181"/>
<circle cx="560" cy="396" r="4" fill="#818181"/>
<circle cx="355" cy="409" r="4" fill="#818181"/>
<circle cx="368.667" cy="409" r="4" fill="#818181"/>
<circle cx="382.333" cy="409" r="4" fill="#818181"/>
<circle cx="396" cy="409" r="4" fill="#818181"/>
<circle cx="409.667" cy="409" r="4" fill="#818181"/>
<circle cx="423.333" cy="409" r="4" fill="#818181"/>
<circle cx="437" cy="409" r="4" fill="#818181"/>
<circle cx="450.667" cy="409" r="4" fill="#818181"/>
<circle cx="464.333" cy="409" r="4" fill="#818181"/>
<circle cx="478" cy="409" r="4" fill="#818181"/>
<circle cx="491.667" cy="409" r="4" fill="#818181"/>
<circle cx="505.333" cy="409" r="4" fill="#818181"/>
<circle cx="519" cy="409" r="4" fill="#818181"/>
<circle cx="532.667" cy="409" r="4" fill="#818181"/>
<circle cx="546.333" cy="409" r="4" fill="#818181"/>
<circle cx="560" cy="409" r="4" fill="#818181"/>
<circle cx="355" cy="422" r="4" fill="#818181"/>
<circle cx="368.667" cy="422" r="4" fill="#818181"/>
<circle cx="382.333" cy="422" r="4" fill="#818181"/>
<circle cx="396" cy="422" r="4" fill="#818181"/>
<circle cx="409.667" cy="422" r="4" fill="#818181"/>
<circle cx="423.333" cy="422" r="4" fill="#818181"/>
<circle cx="437" cy="422" r="4" fill="#818181"/>
<circle cx="450.667" cy="422" r="4" fill="#818181"/>
<circle cx="464.333" cy="422" r="4" fill="#818181"/>
<circle cx="478" cy="422" r="4" fill="#818181"/>
<circle cx="491.667" cy="422" r="4" fill="#818181"/>
<circle cx="505.333" cy="422" r="4" fill="#818181"/>
<circle cx="519" cy="422" r="4" fill="#818181"/>
<circle cx="532.667" cy="422" r="4" fill="#818181"/>
<circle cx="546.333" cy="422" r="4" fill="#818181"/>
<circle cx="560" cy="422" r="4" fill="#818181"/>
<circle cx="355" cy="435" r="4" fill="#818181"/>
<circle cx="368.667" cy="435" r="4" fill="#818181"/>
<circle cx="382.333" cy="435" r="4" fill="#818181"/>
<circle cx="396" cy="435" r="4" fill="#818181"/>
<circle cx="409.667" cy="435" r="4" fill="#818181"/>
<circle cx="423.333" cy="435" r="4" fill="#818181"/>
<circle cx="437" cy="435" r="4" fill="#818181"/>
<circle cx="450.667" cy="435" r="4" fill="#818181"/>
<circle cx="464.333" cy="435" r="4" fill="#818181"/>
<circle cx="478" cy="435" r="4" fill="#818181"/>
<circle cx="491.667" cy="435" r="4" fill="#818181"/>
<circle cx="505.333" cy="435" r="4" fill="#818181"/>
<circle cx="519" cy="435" r="4" fill="#818181"/>
<circle cx="532.667" cy="435" r="4" fill="#818181"/>
<circle cx="546.333" cy="435" r="4" fill="#818181"/>
<circle cx="560" cy="435" r="4" fill="#818181"/>
<circle cx="355" cy="448" r="4" fill="#818181"/>
<circle cx="368.667" cy="448" r="4" fill="#818181"/>
<circle cx="382.333" cy="448" r="4" fill="#818181"/>
<circle cx="396" cy="448" r="4" fill="#818181"/>
<circle cx="409.667" cy="448" r="4" fill="#818181"/>
<circle cx="423.333" cy="448" r="4" fill="#818181"/>
<circle cx="437" cy="448" r="4" fill="#818181"/>
<circle cx="450.667" cy="448" r="4" fill="#818181"/>
<circle cx="464.333" cy="448" r="4" fill="#818181"/>
<circle cx="478" cy="448" r="4" fill="#818181"/>
<circle cx="491.667" cy="448" r="4" fill="#818181"/>
<circle cx="505.333" cy="448" r="4" fill="#818181"/>
<circle cx="519" cy="448" r="4" fill="#818181"/>
<circle cx="532.667" cy="448" r="4" fill="#818181"/>
<circle cx="546.333" cy="448" r="4" fill="#818181"/>
<circle cx="560" cy="448" r="4" fill="#818181"/>
<circle cx="355" cy="461" r="4" fill="#818181"/>
<circle cx="368.667" cy="461" r="4" fill="#818181"/>
<circle cx="382.333" cy="461" r="4" fill="#818181"/>
<circle cx="396" cy="461" r="4" fill="#818181"/>
<circle cx="409.667" cy="461" r="4" fill="#818181"/>
<circle cx="423.333" cy="461" r="4" fill="#818181"/>
<circle cx="437" cy="461" r="4" fill="#818181"/>
<circle cx="450.667" cy="461" r="4" fill="#818181"/>
<circle cx="464.333" cy="461" r="4" fill="#818181"/>
<circle cx="478" cy="461" r="4" fill="#818181"/>
<circle cx="491.667" cy="461" r="4" fill="#818181"/>
<circle cx="505.333" cy="461" r="4" fill="#818181"/>
<circle cx="519" cy="461" r="4" fill="#818181"/>
<circle cx="532.667" cy="461" r="4" fill="#818181"/>
<circle cx="546.333" cy="461" r="4" fill="#818181"/>
<circle cx="560" cy="461" r="4" fill="#818181"/>
<circle cx="355" cy="474" r="4" fill="#818181"/>
<circle cx="368.667" cy="474" r="4" fill="#818181"/>
<circle cx="382.333" cy="474" r="4" fill="#818181"/>
<circle cx="396" cy="474" r="4" fill="#818181"/>
<circle cx="409.667" cy="474" r="4" fill="#818181"/>
<circle cx="423.333" cy="474" r="4" fill="#818181"/>
<circle cx="437" cy="474" r="4" fill="#818181"/>
<circle cx="450.667" cy="474" r="4" fill="#818181"/>
<circle cx="464.333" cy="474" r="4" fill="#818181"/>
<circle cx="478" cy="474" r="4" fill="#818181"/>
<circle cx="491.667" cy="474" r="4" fill="#818181"/>
<circle cx="505.333" cy="474" r="4" fill="#818181"/>
<circle cx="519" cy="474" r="4" fill="#818181"/>
<circle cx="532.667" cy="474" r="4" fill="#818181"/>
<circle cx="546.333" cy="474" r="4" fill="#818181"/>
<circle cx="560" cy="474" r="4" fill="#818181"/>
<rect x="345" y="238" width="119" height="71" rx="4" fill="white"/>
<line x1="350" y1="272.5" x2="457" y2="272.5" stroke="#D9D9D9"/>
<line x1="359.5" y1="264" x2="359.5" y2="281" stroke="#D9D9D9"/>
<line x1="374.5" y1="264" x2="374.5" y2="281" stroke="#D9D9D9"/>
<line x1="389.5" y1="264" x2="389.5" y2="281" stroke="#D9D9D9"/>
<line x1="404.5" y1="264" x2="404.5" y2="281" stroke="#D9D9D9"/>
<line x1="419.5" y1="264" x2="419.5" y2="281" stroke="#D9D9D9"/>
<line x1="434.5" y1="264" x2="434.5" y2="281" stroke="#D9D9D9"/>
<line x1="449.5" y1="264" x2="449.5" y2="281" stroke="#D9D9D9"/>
<line x1="378.5" y1="244" x2="378.5" y2="300" stroke="#818181"/>
<line x1="554.064" y1="304.825" x2="554.064" y2="313.042" stroke="#818181"/>
<path d="M564.02 308.933C564.02 310.983 562.555 312.542 560.868 312.542C559.181 312.542 557.716 310.983 557.716 308.933C557.716 306.883 559.181 305.325 560.868 305.325C562.555 305.325 564.02 306.883 564.02 308.933Z" stroke="#818181"/>
<line x1="500.197" y1="304.825" x2="500.197" y2="313.042" stroke="#818181"/>
<ellipse cx="528" cy="271.5" rx="32.8682" ry="32.4117" transform="rotate(-49.3851 528 271.5)" fill="white"/>
<line x1="513.467" y1="259.696" x2="503.071" y2="250.781" stroke="#D9D9D9"/>
<defs>
<filter id="filter0_d_1208_389" x="127" y="67" width="55" height="55" filterUnits="userSpaceOnUse" color-interpolation-filters="sRGB">
<feFlood flood-opacity="0" result="BackgroundImageFix"/>
<feColorMatrix in="SourceAlpha" type="matrix" values="0 0 0 0 0 0 0 0 0 0 0 0 0 0 0 0 0 0 127 0" result="hardAlpha"/>
<feMorphology radius="3" operator="dilate" in="SourceAlpha" result="effect1_dropShadow_1208_389"/>
<feOffset/>
<feGaussianBlur stdDeviation="6"/>
<feComposite in2="hardAlpha" operator="out"/>
<feColorMatrix type="matrix" values="0 0 0 0 0.604863 0 0 0 0 0.945098 0 0 0 0 0.77498 0 0 0 1 0"/>
<feBlend mode="normal" in2="BackgroundImageFix" result="effect1_dropShadow_1208_389"/>
<feBlend mode="normal" in="SourceGraphic" in2="effect1_dropShadow_1208_389" result="shape"/>
</filter>
<filter id="filter1_d_1208_389" x="194" y="67" width="55" height="55" filterUnits="userSpaceOnUse" color-interpolation-filters="sRGB">
<feFlood flood-opacity="0" result="BackgroundImageFix"/>
<feColorMatrix in="SourceAlpha" type="matrix" values="0 0 0 0 0 0 0 0 0 0 0 0 0 0 0 0 0 0 127 0" result="hardAlpha"/>
<feMorphology radius="3" operator="dilate" in="SourceAlpha" result="effect1_dropShadow_1208_389"/>
<feOffset/>
<feGaussianBlur stdDeviation="6"/>
<feComposite in2="hardAlpha" operator="out"/>
<feColorMatrix type="matrix" values="0 0 0 0 0.604863 0 0 0 0 0.945098 0 0 0 0 0.77498 0 0 0 1 0"/>
<feBlend mode="normal" in2="BackgroundImageFix" result="effect1_dropShadow_1208_389"/>
<feBlend mode="normal" in="SourceGraphic" in2="effect1_dropShadow_1208_389" result="shape"/>
</filter>
<filter id="filter2_d_1208_389" x="260" y="67" width="55" height="55" filterUnits="userSpaceOnUse" color-interpolation-filters="sRGB">
<feFlood flood-opacity="0" result="BackgroundImageFix"/>
<feColorMatrix in="SourceAlpha" type="matrix" values="0 0 0 0 0 0 0 0 0 0 0 0 0 0 0 0 0 0 127 0" result="hardAlpha"/>
<feMorphology radius="3" operator="dilate" in="SourceAlpha" result="effect1_dropShadow_1208_389"/>
<feOffset/>
<feGaussianBlur stdDeviation="6"/>
<feComposite in2="hardAlpha" operator="out"/>
<feColorMatrix type="matrix" values="0 0 0 0 0.604863 0 0 0 0 0.945098 0 0 0 0 0.77498 0 0 0 1 0"/>
<feBlend mode="normal" in2="BackgroundImageFix" result="effect1_dropShadow_1208_389"/>
<feBlend mode="normal" in="SourceGraphic" in2="effect1_dropShadow_1208_389" result="shape"/>
</filter>
</defs>
</svg>
