<svg width="505" height="461" viewBox="0 0 505 461" fill="none" xmlns="http://www.w3.org/2000/svg">
<path d="M0 4.99999C0 2.23856 2.23858 0 5 0H505V461H6.99999C3.13399 461 0 457.866 0 454V4.99999Z" fill="#F3F3F3"/>
<rect x="113.792" y="62.7627" width="277.097" height="73.8925" rx="2.63902" fill="#D9D9D9"/>
<path d="M139.96 117.884C139.96 118.33 139.895 118.75 139.763 119.144C139.632 119.533 139.44 119.873 139.188 120.165C138.943 120.451 138.64 120.677 138.279 120.843C137.919 121.008 137.51 121.091 137.053 121.091C136.595 121.091 136.184 121.008 135.818 120.843C135.458 120.677 135.152 120.451 134.9 120.165C134.654 119.873 134.465 119.533 134.334 119.144C134.202 118.75 134.137 118.33 134.137 117.884C134.137 117.438 134.202 117.02 134.334 116.631C134.465 116.237 134.654 115.897 134.9 115.611C135.152 115.319 135.458 115.09 135.818 114.925C136.184 114.759 136.595 114.676 137.053 114.676C137.51 114.676 137.919 114.759 138.279 114.925C138.64 115.09 138.943 115.319 139.188 115.611C139.44 115.897 139.632 116.237 139.763 116.631C139.895 117.02 139.96 117.438 139.96 117.884ZM134.514 117.884C134.514 118.278 134.571 118.65 134.686 118.999C134.8 119.347 134.966 119.653 135.183 119.916C135.4 120.174 135.666 120.379 135.981 120.534C136.295 120.688 136.653 120.765 137.053 120.765C137.453 120.765 137.808 120.688 138.116 120.534C138.431 120.379 138.697 120.174 138.914 119.916C139.131 119.653 139.297 119.347 139.411 118.999C139.526 118.65 139.583 118.278 139.583 117.884C139.583 117.489 139.526 117.117 139.411 116.769C139.297 116.42 139.131 116.117 138.914 115.859C138.697 115.596 138.431 115.388 138.116 115.233C137.808 115.079 137.453 115.002 137.053 115.002C136.653 115.002 136.295 115.079 135.981 115.233C135.666 115.388 135.4 115.596 135.183 115.859C134.966 116.117 134.8 116.42 134.686 116.769C134.571 117.117 134.514 117.489 134.514 117.884ZM141.026 114.822H141.497L145.366 120.439H145.383V114.822H145.76V120.945H145.314L141.42 115.285H141.403V120.945H141.026V114.822Z" fill="#4D4D4D"/>
<path d="M171.152 114.822H174.994V115.148H171.529V117.601H174.651V117.926H171.529V120.945H171.152V114.822ZM175.815 114.822H176.192V120.945H175.815V114.822ZM177.53 114.822H177.907V120.62H181.381V120.945H177.53V114.822ZM180.485 115.148V114.822H185.177V115.148H183.015V120.945H182.638V115.148H180.485ZM185.851 114.822H189.967V115.148H186.228V117.601H189.744V117.926H186.228V120.62H190.01V120.945H185.851V114.822ZM190.907 114.822H193.463C193.732 114.822 193.983 114.85 194.218 114.907C194.452 114.959 194.658 115.048 194.835 115.173C195.013 115.293 195.15 115.453 195.247 115.654C195.35 115.854 195.401 116.102 195.401 116.4C195.401 116.811 195.284 117.16 195.05 117.446C194.821 117.726 194.501 117.901 194.089 117.969V117.986C194.369 118.021 194.589 118.095 194.75 118.209C194.915 118.324 195.038 118.464 195.118 118.63C195.198 118.796 195.25 118.979 195.273 119.179C195.296 119.379 195.307 119.579 195.307 119.779C195.307 119.899 195.307 120.016 195.307 120.131C195.307 120.245 195.313 120.354 195.324 120.457C195.336 120.554 195.353 120.645 195.376 120.731C195.404 120.817 195.441 120.888 195.487 120.945H195.067C194.987 120.803 194.941 120.637 194.93 120.448C194.924 120.254 194.921 120.054 194.921 119.848C194.921 119.642 194.913 119.439 194.895 119.239C194.878 119.033 194.824 118.85 194.732 118.69C194.641 118.53 194.495 118.401 194.295 118.304C194.101 118.207 193.823 118.158 193.463 118.158H191.285V120.945H190.907V114.822ZM193.463 117.832C193.686 117.832 193.892 117.806 194.081 117.755C194.275 117.698 194.441 117.612 194.578 117.498C194.715 117.383 194.824 117.237 194.904 117.06C194.984 116.883 195.024 116.671 195.024 116.426C195.024 116.197 194.981 116.002 194.895 115.842C194.81 115.676 194.695 115.542 194.552 115.439C194.409 115.336 194.244 115.262 194.055 115.216C193.866 115.17 193.669 115.148 193.463 115.148H191.285V117.832H193.463Z" fill="#4D4D4D"/>
<path d="M212.649 114.822H216.766V115.148H213.026V117.601H216.543V117.926H213.026V120.62H216.809V120.945H212.649V114.822ZM217.705 114.822H221.548V115.148H218.083V117.601H221.205V117.926H218.083V120.945H217.705V114.822ZM222.368 114.822H226.211V115.148H222.746V117.601H225.868V117.926H222.746V120.945H222.368V114.822ZM227.031 114.822H231.148V115.148H227.409V117.601H230.925V117.926H227.409V120.62H231.191V120.945H227.031V114.822ZM231.856 117.884C231.856 117.438 231.922 117.02 232.054 116.631C232.185 116.237 232.374 115.897 232.62 115.611C232.871 115.319 233.177 115.09 233.537 114.925C233.903 114.759 234.315 114.676 234.772 114.676C235.133 114.676 235.444 114.724 235.707 114.822C235.97 114.913 236.191 115.03 236.368 115.173C236.551 115.311 236.699 115.462 236.814 115.628C236.928 115.794 237.014 115.951 237.071 116.1C237.134 116.243 237.177 116.368 237.2 116.477C237.223 116.58 237.234 116.637 237.234 116.649H236.857C236.817 116.391 236.734 116.162 236.608 115.962C236.482 115.757 236.325 115.582 236.136 115.439C235.948 115.296 235.736 115.188 235.502 115.113C235.273 115.039 235.03 115.002 234.772 115.002C234.372 115.002 234.015 115.079 233.7 115.233C233.386 115.388 233.12 115.596 232.903 115.859C232.685 116.117 232.52 116.42 232.405 116.769C232.291 117.117 232.234 117.489 232.234 117.884C232.234 118.278 232.291 118.65 232.405 118.999C232.52 119.347 232.685 119.653 232.903 119.916C233.12 120.174 233.386 120.379 233.7 120.534C234.015 120.688 234.372 120.765 234.772 120.765C235.07 120.765 235.347 120.705 235.604 120.585C235.867 120.459 236.096 120.297 236.291 120.096C236.485 119.891 236.639 119.656 236.754 119.393C236.874 119.124 236.942 118.847 236.96 118.561H237.337C237.303 118.927 237.211 119.264 237.063 119.573C236.92 119.882 236.734 120.151 236.505 120.379C236.282 120.602 236.022 120.777 235.725 120.903C235.427 121.028 235.11 121.091 234.772 121.091C234.315 121.091 233.903 121.008 233.537 120.843C233.177 120.677 232.871 120.451 232.62 120.165C232.374 119.873 232.185 119.533 232.054 119.144C231.922 118.75 231.856 118.33 231.856 117.884ZM237.514 115.148V114.822H242.206V115.148H240.045V120.945H239.667V115.148H237.514Z" fill="#4D4D4D"/>
<g filter="url(#filter0_d_1236_10670)">
<circle cx="139.852" cy="99.3791" r="8.24693" fill="#53F1A2"/>
</g>
<g filter="url(#filter1_d_1236_10670)">
<circle cx="184.056" cy="99.3791" r="8.24693" fill="#53F1A2"/>
</g>
<g filter="url(#filter2_d_1236_10670)">
<circle cx="227.599" cy="99.3791" r="8.24693" fill="#53F1A2"/>
</g>
<ellipse cx="291.265" cy="99.3791" rx="24.4109" ry="24.081" fill="white"/>
<ellipse cx="353.283" cy="99.3791" rx="24.4109" ry="24.081" fill="white"/>
<line x1="269.164" y1="124.78" x2="269.164" y2="130.717" stroke="#4D4D4D" stroke-width="0.659754"/>
<line x1="308.089" y1="124.78" x2="308.089" y2="130.717" stroke="#4D4D4D" stroke-width="0.659754"/>
<path d="M315.347 127.748C315.347 129.244 314.277 130.388 313.037 130.388C311.798 130.388 310.728 129.244 310.728 127.748C310.728 126.253 311.798 125.109 313.037 125.109C314.277 125.109 315.347 126.253 315.347 127.748Z" stroke="#4D4D4D" stroke-width="0.659754"/>
<line x1="331.181" y1="124.78" x2="331.181" y2="130.717" stroke="#4D4D4D" stroke-width="0.659754"/>
<line x1="370.107" y1="124.78" x2="370.107" y2="130.717" stroke="#4D4D4D" stroke-width="0.659754"/>
<path d="M377.364 127.748C377.364 129.244 376.295 130.388 375.055 130.388C373.815 130.388 372.746 129.244 372.746 127.748C372.746 126.253 373.815 125.109 375.055 125.109C376.295 125.109 377.364 126.253 377.364 127.748Z" stroke="#4D4D4D" stroke-width="0.659754"/>
<rect x="84.7627" y="169.643" width="131.951" height="204.524" rx="19.7926" fill="#D9D9D9"/>
<circle cx="151.068" cy="308.521" r="47.1724" fill="#F3F3F3"/>
<circle cx="151.068" cy="308.521" r="16.164" fill="#D9D9D9"/>
<rect x="101.257" y="186.137" width="99.6229" height="64.6559" rx="4.61828" fill="#818181"/>
<rect x="252.34" y="174.921" width="174.835" height="199.246" rx="6.59754" fill="#D9D9D9"/>
<circle cx="272.133" cy="289.718" r="2.63902" fill="#818181"/>
<circle cx="281.15" cy="289.718" r="2.63902" fill="#818181"/>
<circle cx="290.166" cy="289.718" r="2.63902" fill="#818181"/>
<circle cx="299.183" cy="289.718" r="2.63902" fill="#818181"/>
<circle cx="308.2" cy="289.718" r="2.63902" fill="#818181"/>
<circle cx="317.216" cy="289.718" r="2.63902" fill="#818181"/>
<circle cx="326.233" cy="289.718" r="2.63902" fill="#818181"/>
<circle cx="335.249" cy="289.718" r="2.63902" fill="#818181"/>
<circle cx="344.266" cy="289.718" r="2.63902" fill="#818181"/>
<circle cx="353.283" cy="289.718" r="2.63902" fill="#818181"/>
<circle cx="362.3" cy="289.718" r="2.63902" fill="#818181"/>
<circle cx="371.316" cy="289.718" r="2.63902" fill="#818181"/>
<circle cx="380.333" cy="289.718" r="2.63902" fill="#818181"/>
<circle cx="389.349" cy="289.718" r="2.63902" fill="#818181"/>
<circle cx="398.366" cy="289.718" r="2.63902" fill="#818181"/>
<circle cx="407.383" cy="289.718" r="2.63902" fill="#818181"/>
<circle cx="272.133" cy="298.295" r="2.63902" fill="#818181"/>
<circle cx="281.15" cy="298.295" r="2.63902" fill="#818181"/>
<circle cx="290.166" cy="298.295" r="2.63902" fill="#818181"/>
<circle cx="299.183" cy="298.295" r="2.63902" fill="#818181"/>
<circle cx="308.2" cy="298.295" r="2.63902" fill="#818181"/>
<circle cx="317.216" cy="298.295" r="2.63902" fill="#818181"/>
<circle cx="326.233" cy="298.295" r="2.63902" fill="#818181"/>
<circle cx="335.249" cy="298.295" r="2.63902" fill="#818181"/>
<circle cx="344.266" cy="298.295" r="2.63902" fill="#818181"/>
<circle cx="353.283" cy="298.295" r="2.63902" fill="#818181"/>
<circle cx="362.3" cy="298.295" r="2.63902" fill="#818181"/>
<circle cx="371.316" cy="298.295" r="2.63902" fill="#818181"/>
<circle cx="380.333" cy="298.295" r="2.63902" fill="#818181"/>
<circle cx="389.349" cy="298.295" r="2.63902" fill="#818181"/>
<circle cx="398.366" cy="298.295" r="2.63902" fill="#818181"/>
<circle cx="407.383" cy="298.295" r="2.63902" fill="#818181"/>
<circle cx="272.133" cy="306.872" r="2.63902" fill="#818181"/>
<circle cx="281.15" cy="306.872" r="2.63902" fill="#818181"/>
<circle cx="290.166" cy="306.872" r="2.63902" fill="#818181"/>
<circle cx="299.183" cy="306.872" r="2.63902" fill="#818181"/>
<circle cx="308.2" cy="306.872" r="2.63902" fill="#818181"/>
<circle cx="317.216" cy="306.872" r="2.63902" fill="#818181"/>
<circle cx="326.233" cy="306.872" r="2.63902" fill="#818181"/>
<circle cx="335.249" cy="306.872" r="2.63902" fill="#818181"/>
<circle cx="344.266" cy="306.872" r="2.63902" fill="#818181"/>
<circle cx="353.283" cy="306.872" r="2.63902" fill="#818181"/>
<circle cx="362.3" cy="306.872" r="2.63902" fill="#818181"/>
<circle cx="371.316" cy="306.872" r="2.63902" fill="#818181"/>
<circle cx="380.333" cy="306.872" r="2.63902" fill="#818181"/>
<circle cx="389.349" cy="306.872" r="2.63902" fill="#818181"/>
<circle cx="398.366" cy="306.872" r="2.63902" fill="#818181"/>
<circle cx="407.383" cy="306.872" r="2.63902" fill="#818181"/>
<circle cx="272.133" cy="315.449" r="2.63902" fill="#818181"/>
<circle cx="281.15" cy="315.449" r="2.63902" fill="#818181"/>
<circle cx="290.166" cy="315.449" r="2.63902" fill="#818181"/>
<circle cx="299.183" cy="315.449" r="2.63902" fill="#818181"/>
<circle cx="308.2" cy="315.449" r="2.63902" fill="#818181"/>
<circle cx="317.216" cy="315.449" r="2.63902" fill="#818181"/>
<circle cx="326.233" cy="315.449" r="2.63902" fill="#818181"/>
<circle cx="335.249" cy="315.449" r="2.63902" fill="#818181"/>
<circle cx="344.266" cy="315.449" r="2.63902" fill="#818181"/>
<circle cx="353.283" cy="315.449" r="2.63902" fill="#818181"/>
<circle cx="362.3" cy="315.449" r="2.63902" fill="#818181"/>
<circle cx="371.316" cy="315.449" r="2.63902" fill="#818181"/>
<circle cx="380.333" cy="315.449" r="2.63902" fill="#818181"/>
<circle cx="389.349" cy="315.449" r="2.63902" fill="#818181"/>
<circle cx="398.366" cy="315.449" r="2.63902" fill="#818181"/>
<circle cx="407.383" cy="315.449" r="2.63902" fill="#818181"/>
<circle cx="272.133" cy="324.025" r="2.63902" fill="#818181"/>
<circle cx="281.15" cy="324.025" r="2.63902" fill="#818181"/>
<circle cx="290.166" cy="324.025" r="2.63902" fill="#818181"/>
<circle cx="299.183" cy="324.025" r="2.63902" fill="#818181"/>
<circle cx="308.2" cy="324.025" r="2.63902" fill="#818181"/>
<circle cx="317.216" cy="324.025" r="2.63902" fill="#818181"/>
<circle cx="326.233" cy="324.025" r="2.63902" fill="#818181"/>
<circle cx="335.249" cy="324.025" r="2.63902" fill="#818181"/>
<circle cx="344.266" cy="324.025" r="2.63902" fill="#818181"/>
<circle cx="353.283" cy="324.025" r="2.63902" fill="#818181"/>
<circle cx="362.3" cy="324.025" r="2.63902" fill="#818181"/>
<circle cx="371.316" cy="324.025" r="2.63902" fill="#818181"/>
<circle cx="380.333" cy="324.025" r="2.63902" fill="#818181"/>
<circle cx="389.349" cy="324.025" r="2.63902" fill="#818181"/>
<circle cx="398.366" cy="324.025" r="2.63902" fill="#818181"/>
<circle cx="407.383" cy="324.025" r="2.63902" fill="#818181"/>
<circle cx="272.133" cy="332.602" r="2.63902" fill="#818181"/>
<circle cx="281.15" cy="332.602" r="2.63902" fill="#818181"/>
<circle cx="290.166" cy="332.602" r="2.63902" fill="#818181"/>
<circle cx="299.183" cy="332.602" r="2.63902" fill="#818181"/>
<circle cx="308.2" cy="332.602" r="2.63902" fill="#818181"/>
<circle cx="317.216" cy="332.602" r="2.63902" fill="#818181"/>
<circle cx="326.233" cy="332.602" r="2.63902" fill="#818181"/>
<circle cx="335.249" cy="332.602" r="2.63902" fill="#818181"/>
<circle cx="344.266" cy="332.602" r="2.63902" fill="#818181"/>
<circle cx="353.283" cy="332.602" r="2.63902" fill="#818181"/>
<circle cx="362.3" cy="332.602" r="2.63902" fill="#818181"/>
<circle cx="371.316" cy="332.602" r="2.63902" fill="#818181"/>
<circle cx="380.333" cy="332.602" r="2.63902" fill="#818181"/>
<circle cx="389.349" cy="332.602" r="2.63902" fill="#818181"/>
<circle cx="398.366" cy="332.602" r="2.63902" fill="#818181"/>
<circle cx="407.383" cy="332.602" r="2.63902" fill="#818181"/>
<circle cx="272.133" cy="341.179" r="2.63902" fill="#818181"/>
<circle cx="281.15" cy="341.179" r="2.63902" fill="#818181"/>
<circle cx="290.166" cy="341.179" r="2.63902" fill="#818181"/>
<circle cx="299.183" cy="341.179" r="2.63902" fill="#818181"/>
<circle cx="308.2" cy="341.179" r="2.63902" fill="#818181"/>
<circle cx="317.216" cy="341.179" r="2.63902" fill="#818181"/>
<circle cx="326.233" cy="341.179" r="2.63902" fill="#818181"/>
<circle cx="335.249" cy="341.179" r="2.63902" fill="#818181"/>
<circle cx="344.266" cy="341.179" r="2.63902" fill="#818181"/>
<circle cx="353.283" cy="341.179" r="2.63902" fill="#818181"/>
<circle cx="362.3" cy="341.179" r="2.63902" fill="#818181"/>
<circle cx="371.316" cy="341.179" r="2.63902" fill="#818181"/>
<circle cx="380.333" cy="341.179" r="2.63902" fill="#818181"/>
<circle cx="389.349" cy="341.179" r="2.63902" fill="#818181"/>
<circle cx="398.366" cy="341.179" r="2.63902" fill="#818181"/>
<circle cx="407.383" cy="341.179" r="2.63902" fill="#818181"/>
<circle cx="272.133" cy="349.756" r="2.63902" fill="#818181"/>
<circle cx="281.15" cy="349.756" r="2.63902" fill="#818181"/>
<circle cx="290.166" cy="349.756" r="2.63902" fill="#818181"/>
<circle cx="299.183" cy="349.756" r="2.63902" fill="#818181"/>
<circle cx="308.2" cy="349.756" r="2.63902" fill="#818181"/>
<circle cx="317.216" cy="349.756" r="2.63902" fill="#818181"/>
<circle cx="326.233" cy="349.756" r="2.63902" fill="#818181"/>
<circle cx="335.249" cy="349.756" r="2.63902" fill="#818181"/>
<circle cx="344.266" cy="349.756" r="2.63902" fill="#818181"/>
<circle cx="353.283" cy="349.756" r="2.63902" fill="#818181"/>
<circle cx="362.3" cy="349.756" r="2.63902" fill="#818181"/>
<circle cx="371.316" cy="349.756" r="2.63902" fill="#818181"/>
<circle cx="380.333" cy="349.756" r="2.63902" fill="#818181"/>
<circle cx="389.349" cy="349.756" r="2.63902" fill="#818181"/>
<circle cx="398.366" cy="349.756" r="2.63902" fill="#818181"/>
<circle cx="407.383" cy="349.756" r="2.63902" fill="#818181"/>
<rect x="265.535" y="194.054" width="78.5107" height="46.8425" rx="2.63902" fill="white"/>
<line x1="268.834" y1="216.815" x2="339.428" y2="216.815" stroke="#D9D9D9" stroke-width="0.659754"/>
<line x1="275.102" y1="211.207" x2="275.102" y2="222.423" stroke="#D9D9D9" stroke-width="0.659754"/>
<line x1="284.998" y1="211.207" x2="284.998" y2="222.423" stroke="#D9D9D9" stroke-width="0.659754"/>
<line x1="294.894" y1="211.207" x2="294.894" y2="222.423" stroke="#D9D9D9" stroke-width="0.659754"/>
<line x1="304.791" y1="211.207" x2="304.791" y2="222.423" stroke="#D9D9D9" stroke-width="0.659754"/>
<line x1="314.687" y1="211.207" x2="314.687" y2="222.423" stroke="#D9D9D9" stroke-width="0.659754"/>
<line x1="324.583" y1="211.207" x2="324.583" y2="222.423" stroke="#D9D9D9" stroke-width="0.659754"/>
<line x1="334.48" y1="211.207" x2="334.48" y2="222.423" stroke="#D9D9D9" stroke-width="0.659754"/>
<line x1="287.637" y1="198.012" x2="287.637" y2="234.959" stroke="#818181" stroke-width="0.659754"/>
<line x1="403.467" y1="238.142" x2="403.467" y2="243.563" stroke="#818181" stroke-width="0.659754"/>
<path d="M410.035 240.852C410.035 242.205 409.068 243.233 407.955 243.233C406.842 243.233 405.876 242.205 405.876 240.852C405.876 239.5 406.842 238.472 407.955 238.472C409.068 238.472 410.035 239.5 410.035 240.852Z" stroke="#818181" stroke-width="0.659754"/>
<line x1="367.928" y1="238.142" x2="367.928" y2="243.563" stroke="#818181" stroke-width="0.659754"/>
<ellipse cx="386.271" cy="216.156" rx="21.6849" ry="21.3837" transform="rotate(-49.3851 386.271 216.156)" fill="white"/>
<line x1="376.682" y1="208.368" x2="369.823" y2="202.486" stroke="#D9D9D9" stroke-width="0.659754"/>
<defs>
<filter id="filter0_d_1236_10670" x="121.709" y="81.2358" width="36.2865" height="36.2865" filterUnits="userSpaceOnUse" color-interpolation-filters="sRGB">
<feFlood flood-opacity="0" result="BackgroundImageFix"/>
<feColorMatrix in="SourceAlpha" type="matrix" values="0 0 0 0 0 0 0 0 0 0 0 0 0 0 0 0 0 0 127 0" result="hardAlpha"/>
<feMorphology radius="1.97926" operator="dilate" in="SourceAlpha" result="effect1_dropShadow_1236_10670"/>
<feOffset/>
<feGaussianBlur stdDeviation="3.95853"/>
<feComposite in2="hardAlpha" operator="out"/>
<feColorMatrix type="matrix" values="0 0 0 0 0.604863 0 0 0 0 0.945098 0 0 0 0 0.77498 0 0 0 1 0"/>
<feBlend mode="normal" in2="BackgroundImageFix" result="effect1_dropShadow_1236_10670"/>
<feBlend mode="normal" in="SourceGraphic" in2="effect1_dropShadow_1236_10670" result="shape"/>
</filter>
<filter id="filter1_d_1236_10670" x="165.912" y="81.2358" width="36.2863" height="36.2865" filterUnits="userSpaceOnUse" color-interpolation-filters="sRGB">
<feFlood flood-opacity="0" result="BackgroundImageFix"/>
<feColorMatrix in="SourceAlpha" type="matrix" values="0 0 0 0 0 0 0 0 0 0 0 0 0 0 0 0 0 0 127 0" result="hardAlpha"/>
<feMorphology radius="1.97926" operator="dilate" in="SourceAlpha" result="effect1_dropShadow_1236_10670"/>
<feOffset/>
<feGaussianBlur stdDeviation="3.95853"/>
<feComposite in2="hardAlpha" operator="out"/>
<feColorMatrix type="matrix" values="0 0 0 0 0.604863 0 0 0 0 0.945098 0 0 0 0 0.77498 0 0 0 1 0"/>
<feBlend mode="normal" in2="BackgroundImageFix" result="effect1_dropShadow_1236_10670"/>
<feBlend mode="normal" in="SourceGraphic" in2="effect1_dropShadow_1236_10670" result="shape"/>
</filter>
<filter id="filter2_d_1236_10670" x="209.456" y="81.2358" width="36.2863" height="36.2865" filterUnits="userSpaceOnUse" color-interpolation-filters="sRGB">
<feFlood flood-opacity="0" result="BackgroundImageFix"/>
<feColorMatrix in="SourceAlpha" type="matrix" values="0 0 0 0 0 0 0 0 0 0 0 0 0 0 0 0 0 0 127 0" result="hardAlpha"/>
<feMorphology radius="1.97926" operator="dilate" in="SourceAlpha" result="effect1_dropShadow_1236_10670"/>
<feOffset/>
<feGaussianBlur stdDeviation="3.95853"/>
<feComposite in2="hardAlpha" operator="out"/>
<feColorMatrix type="matrix" values="0 0 0 0 0.604863 0 0 0 0 0.945098 0 0 0 0 0.77498 0 0 0 1 0"/>
<feBlend mode="normal" in2="BackgroundImageFix" result="effect1_dropShadow_1236_10670"/>
<feBlend mode="normal" in="SourceGraphic" in2="effect1_dropShadow_1236_10670" result="shape"/>
</filter>
</defs>
</svg>
