<svg width="180" height="38" viewBox="0 0 180 38" fill="none" xmlns="http://www.w3.org/2000/svg">
<line x1="88.5195" y1="3.16406" x2="91.3672" y2="3.16406" stroke="#00FFA0" stroke-width="2.32031"/>
<line x1="91.3672" y1="1.16016" x2="88.5195" y2="1.16016" stroke="#00FFA0" stroke-width="2.32031"/>
<line x1="146" y1="2.32031" x2="152.855" y2="2.32031" stroke="#959D9A" stroke-width="1.89844"/>
<line x1="152.855" y1="1.26562" x2="146" y2="1.26562" stroke="#959D9A" stroke-width="1.89844"/>
<path d="M0.453125 0C0.453125 0 64.2031 0 65.7656 0C67.3281 0 67.3281 -1.19209e-07 68.5781 1.22645C69.8281 2.4529 83.4219 15.7905 83.4219 15.7905C83.4219 15.7905 83.4219 5.94099 83.4219 1.8761C83.4219 0.630439 82.9531 0.714718 86.8594 0.156352C87.6406 0.0446783 88.5195 0.00304002 88.5195 0.00304002V4.32422L88.5781 23.4141C88.5781 23.4141 85.4531 23.414 84.9844 23.4141C84.5156 23.4141 83.625 23.0119 82.7969 22.2006C81.0735 20.5121 67.3281 7.19172 67.3281 7.19172V23.4141L62.1719 26.5409V4.32118H37.0156V8.91149H51.5469V12.9764H37.0156V19.0737C37.0156 19.0737 51.2344 19.0737 53.1094 19.0737C54.9844 19.0737 54.6838 18.9316 55.2558 21.1062C55.2872 21.2257 55.316 21.3286 55.3405 21.4188C55.4255 21.7315 55.3693 22.1538 55.1406 22.4224C54.9509 22.6452 54.1367 23.4141 54.1367 23.4141H31.0391V4.32118H26.3906L7.94141 19.0898H23.4453L25.4492 23.4141H0.453125V19.0898L18.2656 4.32118H0.453125V0Z" fill="white"/>
<path fill-rule="evenodd" clip-rule="evenodd" d="M148.215 3.26953V7.06641C148.217 13.1309 141.676 13.6346 141.676 13.6346L152.328 23.4141H145.609L134.672 13.3945H129.652V23.4141H124.516V4.32118H109.516V23.4141L103.918 23.4171V4.32422H91.3672V0.00304002C91.3672 0.00304002 127.416 0.226546 145.809 0.312684C148.266 0.333404 148.215 2.63672 148.215 3.26953ZM143.578 4.32422L129.652 4.32118V9.38051H140.297C142.328 9.38051 143.578 9.06783 143.578 6.87904V4.32422Z" fill="white"/>
<path d="M157.221 15.7943C157.221 17.6704 157.689 19.7028 159.721 19.7028H169.877C172.377 19.7028 172.689 17.6704 172.689 15.7943C172.689 15.7943 172.689 6.22152 172.689 1.58575L177.377 0.316406C177.377 5.3727 177.377 17.6704 177.377 17.6704C177.377 23.455 172.689 23.4178 169.877 23.4178H159.721C157.221 23.4178 152.855 23.5034 152.855 17.7188C152.855 17.7188 152.855 5.52813 152.855 0.316406L157.221 2.79492V15.7943Z" fill="white"/>
<path d="M143.578 4.32433L129.652 4.32129V9.38062H140.297C142.328 9.38062 143.578 9.06793 143.578 6.87915V4.32433Z" fill="#00FFA0"/>
<rect y="28.5271" width="13.9314" height="8.4729" fill="white"/>
<rect x="19.6362" y="28.5271" width="13.9314" height="8.4729" fill="#A8B1AE"/>
<rect x="39.2723" y="28.5271" width="13.9314" height="8.4729" fill="#00FFA0"/>
<path opacity="0.38" d="M90.4577 37C89.6879 37 89.1219 36.966 88.7596 36.8981C88.3974 36.8302 88.2163 36.751 88.2163 36.6604L88.8955 35.1831C89.1559 35.2284 89.8011 35.2737 90.8313 35.3189C91.8727 35.3529 93.2991 35.3699 95.1103 35.3699H95.433C95.9197 35.3699 96.265 35.285 96.4688 35.1152C96.6725 34.934 96.7744 34.6341 96.7744 34.2152V33.8756C96.7744 33.4794 96.6895 33.1964 96.5197 33.0266C96.3612 32.8568 95.999 32.7719 95.433 32.7719H91.4935C90.3501 32.7719 89.5181 32.5624 88.9974 32.1436C88.4766 31.7134 88.2163 31.0172 88.2163 30.055V29.7833C88.2163 29.2852 88.3068 28.8267 88.488 28.4079C88.6804 27.989 89.003 27.6551 89.4558 27.406C89.9087 27.1457 90.5313 27.0155 91.3237 27.0155H95.9424C96.7122 27.0155 97.3348 27.0551 97.8102 27.1343C98.2857 27.2136 98.5234 27.2985 98.5234 27.3891L98.1838 28.8154C97.8895 28.7815 97.2216 28.7475 96.1801 28.7135C95.1386 28.6682 93.7406 28.6456 91.9859 28.6456L91.7991 28.6286C91.2784 28.6286 90.9275 28.7362 90.7464 28.9513C90.5652 29.155 90.469 29.4154 90.4577 29.7324V30.021C90.4577 30.3946 90.5596 30.6776 90.7633 30.8701C90.9784 31.0512 91.3294 31.1417 91.8161 31.1417H95.5858C96.3103 31.1417 96.9273 31.2153 97.4367 31.3625C97.9461 31.5096 98.3366 31.7813 98.6083 32.1775C98.88 32.5624 99.0158 33.1341 99.0158 33.8926V34.1643C99.0158 35.0133 98.7951 35.6982 98.3536 36.2189C97.9234 36.7396 97.1706 37 96.0952 37H90.4577ZM105.313 37V32.8568L100.372 27.0155H103.089L105.602 30.1908L106.383 31.2436H106.553L107.334 30.1908L109.847 27.0155H112.564L111.902 28.0343L107.555 32.9247V37H105.313ZM116.169 37C115.399 37 114.833 36.966 114.47 36.8981C114.108 36.8302 113.927 36.751 113.927 36.6604L114.606 35.1831C114.867 35.2284 115.512 35.2737 116.542 35.3189C117.584 35.3529 119.01 35.3699 120.821 35.3699H121.144C121.631 35.3699 121.976 35.285 122.18 35.1152C122.383 34.934 122.485 34.6341 122.485 34.2152V33.8756C122.485 33.4794 122.4 33.1964 122.231 33.0266C122.072 32.8568 121.71 32.7719 121.144 32.7719H117.204C116.061 32.7719 115.229 32.5624 114.708 32.1436C114.187 31.7134 113.927 31.0172 113.927 30.055V29.7833C113.927 29.2852 114.018 28.8267 114.199 28.4079C114.391 27.989 114.714 27.6551 115.167 27.406C115.619 27.1457 116.242 27.0155 117.035 27.0155H121.653C122.423 27.0155 123.046 27.0551 123.521 27.1343C123.997 27.2136 124.234 27.2985 124.234 27.3891L123.895 28.8154C123.6 28.7815 122.932 28.7475 121.891 28.7135C120.849 28.6682 119.451 28.6456 117.697 28.6456L117.51 28.6286C116.989 28.6286 116.638 28.7362 116.457 28.9513C116.276 29.155 116.18 29.4154 116.169 29.7324V30.021C116.169 30.3946 116.27 30.6776 116.474 30.8701C116.689 31.0512 117.04 31.1417 117.527 31.1417H121.297C122.021 31.1417 122.638 31.2153 123.147 31.3625C123.657 31.5096 124.047 31.7813 124.319 32.1775C124.591 32.5624 124.727 33.1341 124.727 33.8926V34.1643C124.727 35.0133 124.506 35.6982 124.064 36.2189C123.634 36.7396 122.881 37 121.806 37H116.169ZM130.684 37L130.667 28.6286H126.253V26.9985H137.358V28.6286H132.926V37H130.684ZM139.231 37V27.0155H149.793V28.6456H141.473V30.9889H147.823V32.67H141.473V35.3699H149.861L150.54 36.8132C150.54 36.8585 150.387 36.9038 150.082 36.9491C149.776 36.983 149.25 37 148.503 37H139.231ZM152.572 37V28.3739L152.402 27.0155H154.983L158.82 33.8077L162.794 27.0155H165.086V37H162.845V30.6663H162.658L161.996 32.1436L159.856 35.9812H157.802L155.662 32.1436L154.983 30.6663H154.813V37H152.572ZM169.879 37C169.109 37 168.543 36.966 168.18 36.8981C167.818 36.8302 167.637 36.751 167.637 36.6604L168.316 35.1831C168.577 35.2284 169.222 35.2737 170.252 35.3189C171.294 35.3529 172.72 35.3699 174.531 35.3699H174.854C175.341 35.3699 175.686 35.285 175.89 35.1152C176.093 34.934 176.195 34.6341 176.195 34.2152V33.8756C176.195 33.4794 176.11 33.1964 175.941 33.0266C175.782 32.8568 175.42 32.7719 174.854 32.7719H170.914C169.771 32.7719 168.939 32.5624 168.418 32.1436C167.897 31.7134 167.637 31.0172 167.637 30.055V29.7833C167.637 29.2852 167.728 28.8267 167.909 28.4079C168.101 27.989 168.424 27.6551 168.877 27.406C169.329 27.1457 169.952 27.0155 170.745 27.0155H175.363C176.133 27.0155 176.756 27.0551 177.231 27.1343C177.707 27.2136 177.944 27.2985 177.944 27.3891L177.605 28.8154C177.31 28.7815 176.642 28.7475 175.601 28.7135C174.559 28.6682 173.161 28.6456 171.407 28.6456L171.22 28.6286C170.699 28.6286 170.348 28.7362 170.167 28.9513C169.986 29.155 169.89 29.4154 169.879 29.7324V30.021C169.879 30.3946 169.98 30.6776 170.184 30.8701C170.399 31.0512 170.75 31.1417 171.237 31.1417H175.007C175.731 31.1417 176.348 31.2153 176.858 31.3625C177.367 31.5096 177.757 31.7813 178.029 32.1775C178.301 32.5624 178.437 33.1341 178.437 33.8926V34.1643C178.437 35.0133 178.216 35.6982 177.774 36.2189C177.344 36.7396 176.591 37 175.516 37H169.879Z" fill="#E8FFF6"/>
<mask id="mask0_82_139" style="mask-type:alpha" maskUnits="userSpaceOnUse" x="146" y="0" width="7" height="4">
<line x1="146" y1="2.32031" x2="152.855" y2="2.32031" stroke="black" stroke-width="1.89844"/>
<line x1="152.855" y1="1.26562" x2="146" y2="1.26562" stroke="black" stroke-width="1.89844"/>
</mask>
<g mask="url(#mask0_82_139)">
<g filter="url(#filter0_d_82_139)">
<path d="M0.453125 0C0.453125 0 64.2031 0 65.7656 0C67.3281 0 67.3281 -1.00583e-07 68.5781 1.22645C69.8281 2.4529 83.4219 15.7905 83.4219 15.7905C83.4219 15.7905 83.4219 5.94099 83.4219 1.8761C83.4219 0.630439 82.9531 0.714718 86.8594 0.156352C87.6406 0.0446783 88.5195 0.00304002 88.5195 0.00304002V4.32422L88.5781 23.4141C88.5781 23.4141 85.4531 23.414 84.9844 23.4141C84.5156 23.4141 83.625 23.0119 82.7969 22.2006C81.0735 20.5121 67.3281 7.19172 67.3281 7.19172V23.4141L62.1719 26.5409V4.32118H37.0156V8.91149H51.5469V12.9764H37.0156V19.0737C37.0156 19.0737 51.2344 19.0737 53.1094 19.0737C54.9844 19.0737 54.6838 18.9316 55.2558 21.1062C55.2872 21.2257 55.316 21.3286 55.3405 21.4188C55.4255 21.7315 55.3693 22.1538 55.1406 22.4224C54.9509 22.6452 54.1367 23.4141 54.1367 23.4141H31.0391V4.32118H26.3906L7.94141 19.0898H23.4453L25.4492 23.4141H0.453125V19.0898L18.2656 4.32118H0.453125V0Z" fill="white"/>
<path fill-rule="evenodd" clip-rule="evenodd" d="M148.215 3.26953V7.06641C148.217 13.1309 141.676 13.6346 141.676 13.6346L152.328 23.4141H145.609L134.672 13.3945H129.652V23.4141H124.516V4.32118H109.516V23.4141L103.918 23.4171V4.32422H91.3672V0.00304002C91.3672 0.00304002 127.416 0.226546 145.809 0.312684C148.266 0.333404 148.215 2.63672 148.215 3.26953ZM143.578 4.32422L129.652 4.32118V9.38051H140.297C142.328 9.38051 143.578 9.06783 143.578 6.87904V4.32422Z" fill="white"/>
<path d="M157.221 15.7943C157.221 17.6704 157.689 19.7028 159.721 19.7028H169.877C172.377 19.7028 172.689 17.6704 172.689 15.7943C172.689 15.7943 172.689 6.22152 172.689 1.58575L177.377 0.316406C177.377 5.3727 177.377 17.6704 177.377 17.6704C177.377 23.455 172.689 23.4178 169.877 23.4178H159.721C157.221 23.4178 152.855 23.5034 152.855 17.7188C152.855 17.7188 152.855 5.52813 152.855 0.316406L157.221 2.79492V15.7943Z" fill="white"/>
</g>
</g>
<mask id="mask1_82_139" style="mask-type:alpha" maskUnits="userSpaceOnUse" x="88" y="0" width="4" height="5">
<line x1="88.5195" y1="3.16406" x2="91.3672" y2="3.16406" stroke="#00FFA0" stroke-width="2.32031"/>
<line x1="91.3672" y1="1.16016" x2="88.5195" y2="1.16016" stroke="#00FFA0" stroke-width="2.32031"/>
</mask>
<g mask="url(#mask1_82_139)">
<g filter="url(#filter1_d_82_139)">
<path d="M0.453125 0C0.453125 0 64.2031 0 65.7656 0C67.3281 0 67.3281 -1.00583e-07 68.5781 1.22645C69.8281 2.4529 83.4219 15.7905 83.4219 15.7905C83.4219 15.7905 83.4219 5.94099 83.4219 1.8761C83.4219 0.630439 82.9531 0.714718 86.8594 0.156352C87.6406 0.0446783 88.5195 0.00304002 88.5195 0.00304002V4.32422L88.5781 23.4141C88.5781 23.4141 85.4531 23.414 84.9844 23.4141C84.5156 23.4141 83.625 23.0119 82.7969 22.2006C81.0735 20.5121 67.3281 7.19172 67.3281 7.19172V23.4141L62.1719 26.5409V4.32118H37.0156V8.91149H51.5469V12.9764H37.0156V19.0737C37.0156 19.0737 51.2344 19.0737 53.1094 19.0737C54.9844 19.0737 54.6838 18.9316 55.2558 21.1062C55.2872 21.2257 55.316 21.3286 55.3405 21.4188C55.4255 21.7315 55.3693 22.1538 55.1406 22.4224C54.9509 22.6452 54.1367 23.4141 54.1367 23.4141H31.0391V4.32118H26.3906L7.94141 19.0898H23.4453L25.4492 23.4141H0.453125V19.0898L18.2656 4.32118H0.453125V0Z" fill="white"/>
<path fill-rule="evenodd" clip-rule="evenodd" d="M148.215 3.26953V7.06641C148.217 13.1309 141.676 13.6346 141.676 13.6346L152.328 23.4141H145.609L134.672 13.3945H129.652V23.4141H124.516V4.32118H109.516V23.4141L103.918 23.4171V4.32422H91.3672V0.00304002C91.3672 0.00304002 127.416 0.226546 145.809 0.312684C148.266 0.333404 148.215 2.63672 148.215 3.26953ZM143.578 4.32422L129.652 4.32118V9.38051H140.297C142.328 9.38051 143.578 9.06783 143.578 6.87904V4.32422Z" fill="white"/>
<path d="M157.221 15.7943C157.221 17.6704 157.689 19.7028 159.721 19.7028H169.877C172.377 19.7028 172.689 17.6704 172.689 15.7943C172.689 15.7943 172.689 6.22152 172.689 1.58575L177.377 0.316406C177.377 5.3727 177.377 17.6704 177.377 17.6704C177.377 23.455 172.689 23.4178 169.877 23.4178H159.721C157.221 23.4178 152.855 23.5034 152.855 17.7188C152.855 17.7188 152.855 5.52813 152.855 0.316406L157.221 2.79492V15.7943Z" fill="white"/>
</g>
</g>
<defs>
<filter id="filter0_d_82_139" x="-3.76562" y="-4.21875" width="185.361" height="34.9785" filterUnits="userSpaceOnUse" color-interpolation-filters="sRGB">
<feFlood flood-opacity="0" result="BackgroundImageFix"/>
<feColorMatrix in="SourceAlpha" type="matrix" values="0 0 0 0 0 0 0 0 0 0 0 0 0 0 0 0 0 0 127 0" result="hardAlpha"/>
<feOffset/>
<feGaussianBlur stdDeviation="2.10938"/>
<feComposite in2="hardAlpha" operator="out"/>
<feColorMatrix type="matrix" values="0 0 0 0 0 0 0 0 0 1 0 0 0 0 0.627451 0 0 0 1 0"/>
<feBlend mode="normal" in2="BackgroundImageFix" result="effect1_dropShadow_82_139"/>
<feBlend mode="normal" in="SourceGraphic" in2="effect1_dropShadow_82_139" result="shape"/>
</filter>
<filter id="filter1_d_82_139" x="-0.601562" y="-1.05469" width="179.033" height="28.6504" filterUnits="userSpaceOnUse" color-interpolation-filters="sRGB">
<feFlood flood-opacity="0" result="BackgroundImageFix"/>
<feColorMatrix in="SourceAlpha" type="matrix" values="0 0 0 0 0 0 0 0 0 0 0 0 0 0 0 0 0 0 127 0" result="hardAlpha"/>
<feOffset/>
<feGaussianBlur stdDeviation="0.527344"/>
<feComposite in2="hardAlpha" operator="out"/>
<feColorMatrix type="matrix" values="0 0 0 0 0 0 0 0 0 0 0 0 0 0 0 0 0 0 0.4 0"/>
<feBlend mode="normal" in2="BackgroundImageFix" result="effect1_dropShadow_82_139"/>
<feBlend mode="normal" in="SourceGraphic" in2="effect1_dropShadow_82_139" result="shape"/>
</filter>
</defs>
</svg>
