<svg width="143" height="43" viewBox="0 0 143 43" fill="none" xmlns="http://www.w3.org/2000/svg">
<path d="M3.71 39.126C3.08467 39.126 2.52933 39.014 2.044 38.79C1.568 38.566 1.19467 38.2487 0.924 37.838C0.653333 37.4273 0.508667 36.942 0.49 36.382L1.414 36.214C1.43267 36.8953 1.666 37.4133 2.114 37.768C2.562 38.1227 3.122 38.3 3.794 38.3C4.27 38.3 4.68067 38.216 5.026 38.048C5.37133 37.8707 5.63733 37.6327 5.824 37.334C6.02 37.0353 6.118 36.6947 6.118 36.312C6.118 35.9293 6.02933 35.6167 5.852 35.374C5.67467 35.122 5.432 34.912 5.124 34.744C4.816 34.576 4.466 34.4173 4.074 34.268C3.57933 34.0627 3.15467 33.8433 2.8 33.61C2.45467 33.3767 2.18867 33.1107 2.002 32.812C1.81533 32.504 1.722 32.1447 1.722 31.734C1.722 31.2673 1.83867 30.838 2.072 30.446C2.31467 30.0447 2.65067 29.7227 3.08 29.48C3.51867 29.228 4.03667 29.102 4.634 29.102C5.26867 29.102 5.82867 29.242 6.314 29.522C6.79933 29.802 7.14933 30.2033 7.364 30.726L6.594 31.132C6.426 30.74 6.16933 30.4413 5.824 30.236C5.47867 30.0213 5.07733 29.914 4.62 29.914C4.228 29.914 3.88267 29.9933 3.584 30.152C3.28533 30.3107 3.052 30.5253 2.884 30.796C2.716 31.0573 2.632 31.356 2.632 31.692C2.632 32.028 2.71133 32.3033 2.87 32.518C3.02867 32.7327 3.25733 32.9147 3.556 33.064C3.85467 33.2133 4.2 33.3673 4.592 33.526C5.096 33.722 5.53 33.946 5.894 34.198C6.258 34.4407 6.538 34.73 6.734 35.066C6.93 35.3927 7.028 35.7893 7.028 36.256C7.028 36.8347 6.88333 37.3433 6.594 37.782C6.314 38.2113 5.922 38.5427 5.418 38.776C4.92333 39.0093 4.354 39.126 3.71 39.126ZM8.30813 41.842L10.0161 38.776L8.22413 32.098H9.17612L10.5901 37.88L13.6561 32.098H14.6221L9.28813 41.842H8.30813ZM17.3632 39.098C16.8965 39.098 16.4858 39.028 16.1312 38.888C15.7765 38.748 15.4825 38.5567 15.2492 38.314C15.0158 38.0713 14.8432 37.8053 14.7312 37.516L15.4032 37.054C15.5245 37.446 15.7532 37.7633 16.0892 38.006C16.4345 38.2393 16.8638 38.356 17.3772 38.356C17.7225 38.356 18.0352 38.3 18.3152 38.188C18.5952 38.0667 18.8192 37.8987 18.9872 37.684C19.1552 37.46 19.2392 37.2033 19.2392 36.914C19.2392 36.6713 19.1692 36.4753 19.0292 36.326C18.8892 36.1767 18.6932 36.0553 18.4412 35.962C18.1892 35.8687 17.8952 35.78 17.5592 35.696C17.3072 35.6307 17.0645 35.5607 16.8312 35.486C16.5978 35.402 16.3878 35.2993 16.2012 35.178C16.0145 35.0567 15.8652 34.9073 15.7532 34.73C15.6505 34.5433 15.5992 34.3193 15.5992 34.058C15.5992 33.6567 15.7065 33.302 15.9212 32.994C16.1358 32.686 16.4345 32.4433 16.8172 32.266C17.1998 32.0887 17.6385 32 18.1332 32C18.6465 32 19.0992 32.1167 19.4912 32.35C19.8925 32.574 20.1818 32.91 20.3592 33.358L19.7572 33.722C19.6078 33.3673 19.3885 33.1107 19.0992 32.952C18.8192 32.7933 18.4832 32.714 18.0912 32.714C17.6338 32.714 17.2418 32.826 16.9152 33.05C16.5885 33.274 16.4252 33.5727 16.4252 33.946C16.4252 34.226 16.5465 34.436 16.7892 34.576C17.0318 34.7067 17.3865 34.828 17.8532 34.94C18.2078 35.024 18.5578 35.1313 18.9032 35.262C19.2578 35.3833 19.5472 35.5607 19.7712 35.794C20.0045 36.018 20.1212 36.3447 20.1212 36.774C20.1212 37.2407 19.9998 37.6513 19.7572 38.006C19.5238 38.3513 19.2018 38.622 18.7912 38.818C18.3805 39.0047 17.9045 39.098 17.3632 39.098ZM23.745 39.098C23.4557 39.098 23.2037 39.0513 22.989 38.958C22.7837 38.8553 22.6203 38.706 22.499 38.51C22.387 38.314 22.331 38.062 22.331 37.754C22.331 37.6887 22.331 37.6233 22.331 37.558C22.3403 37.4927 22.3497 37.4273 22.359 37.362L23.381 30.124L24.347 29.606L23.283 37.18C23.2737 37.2453 23.2643 37.3107 23.255 37.376C23.255 37.4413 23.255 37.5067 23.255 37.572C23.255 37.8333 23.3063 38.0293 23.409 38.16C23.521 38.2907 23.7077 38.356 23.969 38.356C24.081 38.356 24.207 38.3467 24.347 38.328C24.487 38.3093 24.6317 38.272 24.781 38.216L24.683 38.958C24.515 39.0047 24.3517 39.0373 24.193 39.056C24.0343 39.084 23.885 39.098 23.745 39.098ZM21.477 32.798L21.589 32.098H25.649L25.551 32.798H21.477ZM28.861 39.098C28.2543 39.098 27.7457 38.9767 27.335 38.734C26.9243 38.482 26.6163 38.1413 26.411 37.712C26.2057 37.2827 26.103 36.7927 26.103 36.242C26.103 35.7287 26.1823 35.22 26.341 34.716C26.4997 34.212 26.7283 33.7547 27.027 33.344C27.335 32.9333 27.7083 32.6067 28.147 32.364C28.5857 32.1213 29.085 32 29.645 32C30.2703 32 30.7743 32.126 31.157 32.378C31.5397 32.63 31.815 32.9567 31.983 33.358C32.1603 33.7593 32.249 34.1933 32.249 34.66C32.249 34.8373 32.235 35.038 32.207 35.262C32.179 35.4767 32.1463 35.6587 32.109 35.808H26.999C26.9897 35.9013 26.9803 35.9853 26.971 36.06C26.971 36.1347 26.971 36.214 26.971 36.298C26.971 36.9327 27.139 37.4227 27.475 37.768C27.811 38.1133 28.2777 38.286 28.875 38.286C29.3137 38.286 29.701 38.2207 30.037 38.09C30.3823 37.95 30.723 37.7167 31.059 37.39L31.647 37.978C31.199 38.37 30.7603 38.6547 30.331 38.832C29.9017 39.0093 29.4117 39.098 28.861 39.098ZM31.381 35.318C31.409 35.1687 31.4277 35.0333 31.437 34.912C31.4463 34.7907 31.451 34.6553 31.451 34.506C31.451 34.2167 31.3903 33.9413 31.269 33.68C31.157 33.4093 30.9703 33.1853 30.709 33.008C30.4477 32.8307 30.0977 32.742 29.659 32.742C29.2203 32.742 28.8237 32.8493 28.469 33.064C28.1143 33.2787 27.8157 33.568 27.573 33.932C27.3397 34.2867 27.1763 34.688 27.083 35.136H31.661L31.381 35.318ZM33.5372 39L34.5172 32.098H35.3992L35.1612 33.876L34.9792 33.778C35.1472 33.3393 35.3572 32.994 35.6092 32.742C35.8706 32.4807 36.1552 32.294 36.4632 32.182C36.7712 32.0607 37.0839 32 37.4012 32C37.8119 32 38.1619 32.084 38.4512 32.252C38.7499 32.4107 38.9786 32.6487 39.1372 32.966C39.2959 33.2833 39.3752 33.6847 39.3752 34.17L38.8992 34.086C39.0859 33.61 39.3099 33.218 39.5712 32.91C39.8326 32.602 40.1312 32.3733 40.4672 32.224C40.8032 32.0747 41.1719 32 41.5732 32C42.0586 32 42.4459 32.0933 42.7352 32.28C43.0246 32.4667 43.2346 32.728 43.3652 33.064C43.4959 33.3907 43.5612 33.764 43.5612 34.184C43.5612 34.3147 43.5566 34.436 43.5472 34.548C43.5472 34.66 43.5379 34.7767 43.5192 34.898L42.9312 39H42.0492L42.6092 35.066C42.6279 34.9447 42.6419 34.828 42.6512 34.716C42.6606 34.5947 42.6652 34.464 42.6652 34.324C42.6652 33.8293 42.5672 33.4467 42.3712 33.176C42.1752 32.9053 41.8392 32.77 41.3632 32.77C40.8126 32.77 40.3459 32.9753 39.9632 33.386C39.5806 33.7967 39.3332 34.4033 39.2212 35.206L38.6892 39H37.7932L38.3672 34.94C38.3859 34.8187 38.3999 34.7067 38.4092 34.604C38.4186 34.492 38.4232 34.3847 38.4232 34.282C38.4232 33.7593 38.3112 33.3767 38.0872 33.134C37.8726 32.8913 37.5552 32.77 37.1352 32.77C36.5752 32.77 36.0992 32.98 35.7072 33.4C35.3246 33.82 35.0772 34.422 34.9652 35.206L34.4332 39H33.5372ZM47.2499 39.098C46.7832 39.098 46.3726 39.028 46.0179 38.888C45.6632 38.748 45.3692 38.5567 45.1359 38.314C44.9026 38.0713 44.7299 37.8053 44.6179 37.516L45.2899 37.054C45.4112 37.446 45.6399 37.7633 45.9759 38.006C46.3212 38.2393 46.7506 38.356 47.2639 38.356C47.6092 38.356 47.9219 38.3 48.2019 38.188C48.4819 38.0667 48.7059 37.8987 48.8739 37.684C49.0419 37.46 49.1259 37.2033 49.1259 36.914C49.1259 36.6713 49.0559 36.4753 48.9159 36.326C48.7759 36.1767 48.5799 36.0553 48.3279 35.962C48.0759 35.8687 47.7819 35.78 47.4459 35.696C47.1939 35.6307 46.9512 35.5607 46.7179 35.486C46.4846 35.402 46.2746 35.2993 46.0879 35.178C45.9012 35.0567 45.7519 34.9073 45.6399 34.73C45.5372 34.5433 45.4859 34.3193 45.4859 34.058C45.4859 33.6567 45.5932 33.302 45.8079 32.994C46.0226 32.686 46.3212 32.4433 46.7039 32.266C47.0866 32.0887 47.5252 32 48.0199 32C48.5332 32 48.9859 32.1167 49.3779 32.35C49.7792 32.574 50.0686 32.91 50.2459 33.358L49.6439 33.722C49.4946 33.3673 49.2752 33.1107 48.9859 32.952C48.7059 32.7933 48.3699 32.714 47.9779 32.714C47.5206 32.714 47.1286 32.826 46.8019 33.05C46.4752 33.274 46.3119 33.5727 46.3119 33.946C46.3119 34.226 46.4332 34.436 46.6759 34.576C46.9186 34.7067 47.2732 34.828 47.7399 34.94C48.0946 35.024 48.4446 35.1313 48.7899 35.262C49.1446 35.3833 49.4339 35.5607 49.6579 35.794C49.8912 36.018 50.0079 36.3447 50.0079 36.774C50.0079 37.2407 49.8866 37.6513 49.6439 38.006C49.4106 38.3513 49.0886 38.622 48.6779 38.818C48.2672 39.0047 47.7912 39.098 47.2499 39.098Z" fill="#818181"/>
<g clip-path="url(#clip0_1236_10460)">
<path d="M110.14 24.5455C110.675 23.8637 113.502 19.091 113.502 19.091L112.967 17.0455C112.967 17.0455 109.528 22.6516 108.917 23.6364C108.306 24.6213 109.605 25.2273 110.14 24.5455Z" fill="#0DD8F2"/>
<path d="M104.485 24.6213C105.172 23.7879 111.821 12.9546 111.821 12.9546L111.286 10.9849C111.286 10.9849 103.644 23.1061 103.186 23.7879C102.727 24.4697 103.797 25.4546 104.485 24.6213Z" fill="#0DD8F2"/>
<path d="M99.6703 24.394C100.205 23.4091 110.216 7.50004 110.216 7.50004L109.681 5.45459C109.681 5.45459 102.816 16.4758 98.3711 23.6364C97.8068 24.5455 99.1353 25.3788 99.6703 24.394Z" fill="#0DD8F2"/>
<path d="M31.1223 24.7728C31.1223 24.7728 54.6594 24.8486 55.7293 24.8486C56.7991 24.8486 56.7991 23.3334 55.7293 23.3334H33.3384L37.8472 13.6365H37.875H56.7991C57.7926 13.6365 57.7926 12.1213 56.7991 12.1213C55.8057 12.1213 38.502 12.1108 38.502 12.1108L43.2732 1.68002H70.5697C70.5697 1.68002 60.6313 23.1503 60.32 23.9237C60.0087 24.6971 61.3467 25.3031 61.7466 24.506C62.1465 23.7089 72.284 1.68002 72.284 1.68002H89.9932C89.9932 1.68002 80.089 23.1346 79.7541 23.9158C79.4192 24.6971 80.7183 25.3031 81.1896 24.4007C81.6609 23.4982 91.6793 1.66735 91.6793 1.66735H107.72C107.72 1.66735 92.9524 23.0937 92.5668 23.7817C92.1812 24.4698 93.3275 25.2274 93.8804 24.5468C94.4332 23.8662 108.863 2.6966 108.863 2.6966C108.863 2.6966 114.725 23.5607 115.031 24.394C115.336 25.2274 116.712 24.8486 116.483 23.9395C116.253 23.0304 110.14 1.66676 110.14 1.66676H115.413L116.406 0.151611H42.3559L31.1223 24.7728Z" fill="black"/>
<path d="M130.238 0.151611H124.965L123.972 1.66676H129.245L130.238 0.151611Z" fill="black"/>
<path d="M130.773 0.151611L129.779 1.66676H133.524L134.517 0.151611H130.773Z" fill="black"/>
<path d="M135.205 0.151611L134.212 1.66676H137.345L138.338 0.151611H135.205Z" fill="black"/>
<path d="M140.631 0.151611H139.026L138.033 1.66676H139.638L140.631 0.151611Z" fill="black"/>
<path d="M142.924 0.151611H141.624L140.631 1.66676H141.93L142.924 0.151611Z" fill="black"/>
<path d="M117.629 0.151611L116.635 1.66676H123.437L124.43 0.151611H117.629Z" fill="black"/>
<path fill-rule="evenodd" clip-rule="evenodd" d="M14.4629 0.151611H32.4978C32.8035 0.151611 33.0327 0.303126 33.1856 0.606156C33.3384 0.909187 33.2451 1.21222 33.1092 1.51525C32.9732 1.81828 28.0655 11.9698 28.0655 11.9698C28.0655 11.9698 28.524 11.9698 29.2882 11.9698C30.0524 11.9698 30.1288 12.7274 29.976 13.0304C29.8231 13.3334 24.7031 23.9395 24.5502 24.3183C24.3974 24.6971 24.1681 24.8486 23.786 24.8486C23.4039 24.8486 3.15283 24.8486 3.15283 24.8486L14.4629 0.151611ZM31.3515 1.66676H15.3799L10.6419 11.9698H26.3843L31.3515 1.66676ZM28.1419 13.4849H9.95414L5.44541 23.3334H23.3275L28.1419 13.4849Z" fill="black"/>
</g>
<defs>
<clipPath id="clip0_1236_10460">
<rect width="140" height="25" fill="white" transform="translate(3)"/>
</clipPath>
</defs>
</svg>
