<svg width="398" height="254" viewBox="0 0 398 254" fill="none" xmlns="http://www.w3.org/2000/svg">
<rect width="307" height="167" rx="2" fill="#D9D9D9"/>
<rect x="30" y="30" width="110" height="16" fill="#808080"/>
<rect x="49" y="58" width="52" height="10" fill="#808080"/>
<rect x="122" y="58" width="52" height="10" fill="#808080"/>
<rect x="132" y="78" width="52" height="10" fill="#808080"/>
<rect x="49" y="78" width="70" height="10" fill="#808080"/>
<rect x="49" y="98" width="32" height="10" fill="#808080"/>
<rect x="93" y="98" width="32" height="10" fill="#808080"/>
<rect x="142" y="98" width="26" height="10" fill="#808080"/>
<circle cx="35" cy="63" r="4" fill="#808080"/>
<circle cx="35" cy="83" r="4" fill="#808080"/>
<circle cx="35" cy="103" r="4" fill="#808080"/>
<path d="M223 74C223 62.9543 231.954 54 243 54H378C389.046 54 398 62.9543 398 74V292H223V74Z" fill="#808080"/>
<path d="M230 74C230 66.8203 235.82 61 243 61H379C386.18 61 392 66.8203 392 74V292H230V74Z" fill="#F3F3F3"/>
<rect x="239" y="88.6058" width="143" height="77.7883" rx="0.931596" fill="#D9D9D9"/>
<rect x="252.974" y="102.58" width="51.2378" height="7.45277" fill="#808080"/>
<rect x="261.824" y="115.622" width="24.2215" height="4.65798" fill="#808080"/>
<rect x="294.293" y="115.622" width="24.2215" height="4.65798" fill="#808080"/>
<rect x="298.951" y="124.938" width="24.2215" height="4.65798" fill="#808080"/>
<rect x="261.824" y="124.938" width="32.6059" height="4.65798" fill="#808080"/>
<rect x="261.824" y="134.254" width="14.9055" height="4.65798" fill="#808080"/>
<rect x="282.319" y="134.254" width="14.9055" height="4.65798" fill="#808080"/>
<rect x="303.609" y="134.254" width="12.1107" height="4.65798" fill="#808080"/>
<circle cx="255.303" cy="117.951" r="1.86319" fill="#808080"/>
<circle cx="255.303" cy="127.267" r="1.86319" fill="#808080"/>
<circle cx="255.303" cy="136.583" r="1.86319" fill="#808080"/>
<rect x="239" y="197" width="102" height="15" fill="#808080"/>
<rect x="239" y="219" width="68" height="10" fill="#808080"/>
<rect x="319" y="219" width="58" height="10" fill="#808080"/>
<rect x="329" y="236" width="58" height="10" fill="#808080"/>
<rect x="239" y="236" width="79" height="10" fill="#808080"/>
<rect x="239" y="253" width="32" height="10" fill="#808080"/>
<rect x="279" y="253" width="32" height="10" fill="#808080"/>
<rect x="319" y="253" width="32" height="10" fill="#808080"/>
<line x1="251" y1="180.5" x2="371" y2="180.5" stroke="white"/>
</svg>
