<svg width="179" height="38" viewBox="0 0 179 38" fill="none" xmlns="http://www.w3.org/2000/svg">
<line x1="88.0664" y1="3.16406" x2="90.9141" y2="3.16406" stroke="#00FFA0" stroke-width="2.32031"/>
<line x1="90.9141" y1="1.16016" x2="88.0664" y2="1.16016" stroke="#00FFA0" stroke-width="2.32031"/>
<line x1="145.547" y1="2.32031" x2="152.402" y2="2.32031" stroke="#959D9A" stroke-width="1.89844"/>
<line x1="152.402" y1="1.26562" x2="145.547" y2="1.26562" stroke="#959D9A" stroke-width="1.89844"/>
<path d="M0 0C0 0 63.75 0 65.3125 0C66.875 0 66.875 -1.19209e-07 68.125 1.22645C69.375 2.4529 82.9687 15.7905 82.9687 15.7905C82.9687 15.7905 82.9687 5.94099 82.9687 1.8761C82.9687 0.630439 82.5 0.714718 86.4062 0.156352C87.1875 0.0446783 88.0664 0.00304002 88.0664 0.00304002V4.32422L88.125 23.4141C88.125 23.4141 85 23.414 84.5312 23.4141C84.0625 23.4141 83.1719 23.0119 82.3438 22.2006C80.6204 20.5121 66.875 7.19172 66.875 7.19172V23.4141L61.7188 26.5409V4.32118H36.5625V8.91149H51.0938V12.9764H36.5625V19.0737C36.5625 19.0737 50.7813 19.0737 52.6562 19.0737C54.5312 19.0737 54.2307 18.9316 54.8026 21.1062C54.8341 21.2257 54.8629 21.3286 54.8874 21.4188C54.9723 21.7315 54.9162 22.1538 54.6875 22.4224C54.4978 22.6452 53.6836 23.4141 53.6836 23.4141H30.5859V4.32118H25.9375L7.48828 19.0898H22.9922L24.9961 23.4141H0V19.0898L17.8125 4.32118H0V0Z" fill="#4E4E4E"/>
<path fill-rule="evenodd" clip-rule="evenodd" d="M147.762 3.26953V7.06641C147.764 13.1309 141.223 13.6346 141.223 13.6346L151.875 23.4141H145.156L134.219 13.3945H129.199V23.4141H124.062V4.32118H109.062V23.4141L103.465 23.4171V4.32422H90.9141V0.00304002C90.9141 0.00304002 126.963 0.226546 145.355 0.312684C147.813 0.333404 147.762 2.63672 147.762 3.26953ZM143.125 4.32422L129.199 4.32118V9.38051H139.844C141.875 9.38051 143.125 9.06783 143.125 6.87904V4.32422Z" fill="#4E4E4E"/>
<path d="M156.768 15.7943C156.768 17.6704 157.236 19.7028 159.268 19.7028H169.424C171.924 19.7028 172.236 17.6704 172.236 15.7943C172.236 15.7943 172.236 6.22152 172.236 1.58575L176.924 0.316406C176.924 5.3727 176.924 17.6704 176.924 17.6704C176.924 23.455 172.236 23.4178 169.424 23.4178H159.268C156.768 23.4178 152.402 23.5034 152.402 17.7188C152.402 17.7188 152.402 5.52813 152.402 0.316406L156.768 2.79492V15.7943Z" fill="#4E4E4E"/>
<path d="M143.125 4.32433L129.199 4.32129V9.38062H139.844C141.875 9.38062 143.125 9.06793 143.125 6.87915V4.32433Z" fill="#00FFA0"/>
<path opacity="0.38" d="M90.0046 37C89.2348 37 88.6688 36.966 88.3065 36.8981C87.9443 36.8302 87.7631 36.751 87.7631 36.6604L88.4424 35.1831C88.7027 35.2284 89.348 35.2737 90.3781 35.3189C91.4196 35.3529 92.846 35.3699 94.6572 35.3699H94.9798C95.4666 35.3699 95.8119 35.285 96.0157 35.1152C96.2194 34.934 96.3213 34.6341 96.3213 34.2152V33.8756C96.3213 33.4794 96.2364 33.1964 96.0666 33.0266C95.9081 32.8568 95.5459 32.7719 94.9798 32.7719H91.0404C89.897 32.7719 89.065 32.5624 88.5442 32.1436C88.0235 31.7134 87.7631 31.0172 87.7631 30.055V29.7833C87.7631 29.2852 87.8537 28.8267 88.0348 28.4079C88.2273 27.989 88.5499 27.6551 89.0027 27.406C89.4555 27.1457 90.0781 27.0155 90.8706 27.0155H95.4893C96.259 27.0155 96.8817 27.0551 97.3571 27.1343C97.8326 27.2136 98.0703 27.2985 98.0703 27.3891L97.7307 28.8154C97.4364 28.7815 96.7685 28.7475 95.727 28.7135C94.6855 28.6682 93.2875 28.6456 91.5328 28.6456L91.346 28.6286C90.8253 28.6286 90.4744 28.7362 90.2932 28.9513C90.1121 29.155 90.0159 29.4154 90.0046 29.7324V30.021C90.0046 30.3946 90.1064 30.6776 90.3102 30.8701C90.5253 31.0512 90.8762 31.1417 91.363 31.1417H95.1327C95.8572 31.1417 96.4741 31.2153 96.9835 31.3625C97.493 31.5096 97.8835 31.7813 98.1552 32.1775C98.4269 32.5624 98.5627 33.1341 98.5627 33.8926V34.1643C98.5627 35.0133 98.342 35.6982 97.9005 36.2189C97.4703 36.7396 96.7175 37 95.6421 37H90.0046ZM104.86 37V32.8568L99.9188 27.0155H102.636L105.149 30.1908L105.93 31.2436H106.1L106.881 30.1908L109.394 27.0155H112.111L111.449 28.0343L107.102 32.9247V37H104.86ZM115.715 37C114.946 37 114.38 36.966 114.017 36.8981C113.655 36.8302 113.474 36.751 113.474 36.6604L114.153 35.1831C114.414 35.2284 115.059 35.2737 116.089 35.3189C117.13 35.3529 118.557 35.3699 120.368 35.3699H120.691C121.177 35.3699 121.523 35.285 121.726 35.1152C121.93 34.934 122.032 34.6341 122.032 34.2152V33.8756C122.032 33.4794 121.947 33.1964 121.777 33.0266C121.619 32.8568 121.257 32.7719 120.691 32.7719H116.751C115.608 32.7719 114.776 32.5624 114.255 32.1436C113.734 31.7134 113.474 31.0172 113.474 30.055V29.7833C113.474 29.2852 113.565 28.8267 113.746 28.4079C113.938 27.989 114.261 27.6551 114.714 27.406C115.166 27.1457 115.789 27.0155 116.581 27.0155H121.2C121.97 27.0155 122.592 27.0551 123.068 27.1343C123.543 27.2136 123.781 27.2985 123.781 27.3891L123.441 28.8154C123.147 28.7815 122.479 28.7475 121.438 28.7135C120.396 28.6682 118.998 28.6456 117.244 28.6456L117.057 28.6286C116.536 28.6286 116.185 28.7362 116.004 28.9513C115.823 29.155 115.727 29.4154 115.715 29.7324V30.021C115.715 30.3946 115.817 30.6776 116.021 30.8701C116.236 31.0512 116.587 31.1417 117.074 31.1417H120.843C121.568 31.1417 122.185 31.2153 122.694 31.3625C123.204 31.5096 123.594 31.7813 123.866 32.1775C124.138 32.5624 124.274 33.1341 124.274 33.8926V34.1643C124.274 35.0133 124.053 35.6982 123.611 36.2189C123.181 36.7396 122.428 37 121.353 37H115.715ZM130.231 37L130.214 28.6286H125.799V26.9985H136.905V28.6286H132.473V37H130.231ZM138.778 37V27.0155H149.34V28.6456H141.02V30.9889H147.37V32.67H141.02V35.3699H149.408L150.087 36.8132C150.087 36.8585 149.934 36.9038 149.629 36.9491C149.323 36.983 148.797 37 148.05 37H138.778ZM152.118 37V28.3739L151.949 27.0155H154.53L158.367 33.8077L162.341 27.0155H164.633V37H162.392V30.6663H162.205L161.543 32.1436L159.403 35.9812H157.348L155.209 32.1436L154.53 30.6663H154.36V37H152.118ZM169.425 37C168.656 37 168.09 36.966 167.727 36.8981C167.365 36.8302 167.184 36.751 167.184 36.6604L167.863 35.1831C168.124 35.2284 168.769 35.2737 169.799 35.3189C170.84 35.3529 172.267 35.3699 174.078 35.3699H174.401C174.887 35.3699 175.233 35.285 175.436 35.1152C175.64 34.934 175.742 34.6341 175.742 34.2152V33.8756C175.742 33.4794 175.657 33.1964 175.487 33.0266C175.329 32.8568 174.967 32.7719 174.401 32.7719H170.461C169.318 32.7719 168.486 32.5624 167.965 32.1436C167.444 31.7134 167.184 31.0172 167.184 30.055V29.7833C167.184 29.2852 167.275 28.8267 167.456 28.4079C167.648 27.989 167.971 27.6551 168.424 27.406C168.876 27.1457 169.499 27.0155 170.291 27.0155H174.91C175.68 27.0155 176.302 27.0551 176.778 27.1343C177.253 27.2136 177.491 27.2985 177.491 27.3891L177.152 28.8154C176.857 28.7815 176.189 28.7475 175.148 28.7135C174.106 28.6682 172.708 28.6456 170.954 28.6456L170.767 28.6286C170.246 28.6286 169.895 28.7362 169.714 28.9513C169.533 29.155 169.437 29.4154 169.425 29.7324V30.021C169.425 30.3946 169.527 30.6776 169.731 30.8701C169.946 31.0512 170.297 31.1417 170.784 31.1417H174.554C175.278 31.1417 175.895 31.2153 176.404 31.3625C176.914 31.5096 177.304 31.7813 177.576 32.1775C177.848 32.5624 177.984 33.1341 177.984 33.8926V34.1643C177.984 35.0133 177.763 35.6982 177.321 36.2189C176.891 36.7396 176.138 37 175.063 37H169.425Z" fill="#001A10"/>
<mask id="mask0_1346_1785" style="mask-type:alpha" maskUnits="userSpaceOnUse" x="145" y="0" width="8" height="4">
<line x1="145.547" y1="2.32031" x2="152.402" y2="2.32031" stroke="black" stroke-width="1.89844"/>
<line x1="152.402" y1="1.26562" x2="145.547" y2="1.26562" stroke="black" stroke-width="1.89844"/>
</mask>
<g mask="url(#mask0_1346_1785)">
<g filter="url(#filter0_d_1346_1785)">
<path d="M0 0C0 0 63.75 0 65.3125 0C66.875 0 66.875 -1.00583e-07 68.125 1.22645C69.375 2.4529 82.9687 15.7905 82.9687 15.7905C82.9687 15.7905 82.9687 5.94099 82.9687 1.8761C82.9687 0.630439 82.5 0.714718 86.4062 0.156352C87.1875 0.0446783 88.0664 0.00304002 88.0664 0.00304002V4.32422L88.125 23.4141C88.125 23.4141 85 23.414 84.5312 23.4141C84.0625 23.4141 83.1719 23.0119 82.3437 22.2006C80.6204 20.5121 66.875 7.19172 66.875 7.19172V23.4141L61.7187 26.5409V4.32118H36.5625V8.91149H51.0937V12.9764H36.5625V19.0737C36.5625 19.0737 50.7812 19.0737 52.6562 19.0737C54.5312 19.0737 54.2307 18.9316 54.8026 21.1062C54.8341 21.2257 54.8629 21.3286 54.8874 21.4188C54.9723 21.7315 54.9162 22.1538 54.6875 22.4224C54.4978 22.6452 53.6836 23.4141 53.6836 23.4141H30.5859V4.32118H25.9375L7.48828 19.0898H22.9922L24.9961 23.4141H0V19.0898L17.8125 4.32118H0V0Z" fill="#4E4E4E"/>
<path fill-rule="evenodd" clip-rule="evenodd" d="M147.762 3.26953V7.06641C147.764 13.1309 141.223 13.6346 141.223 13.6346L151.875 23.4141H145.156L134.219 13.3945H129.199V23.4141H124.062V4.32118H109.063V23.4141L103.465 23.4171V4.32422H90.9141V0.00304002C90.9141 0.00304002 126.963 0.226546 145.355 0.312684C147.813 0.333404 147.762 2.63672 147.762 3.26953ZM143.125 4.32422L129.199 4.32118V9.38051H139.844C141.875 9.38051 143.125 9.06783 143.125 6.87904V4.32422Z" fill="#4E4E4E"/>
<path d="M156.768 15.7943C156.768 17.6704 157.236 19.7028 159.268 19.7028H169.424C171.924 19.7028 172.236 17.6704 172.236 15.7943C172.236 15.7943 172.236 6.22152 172.236 1.58575L176.924 0.316406C176.924 5.3727 176.924 17.6704 176.924 17.6704C176.924 23.455 172.236 23.4178 169.424 23.4178H159.268C156.768 23.4178 152.402 23.5034 152.402 17.7188C152.402 17.7188 152.402 5.52813 152.402 0.316406L156.768 2.79492V15.7943Z" fill="#4E4E4E"/>
</g>
</g>
<mask id="mask1_1346_1785" style="mask-type:alpha" maskUnits="userSpaceOnUse" x="88" y="0" width="3" height="5">
<line x1="88.0664" y1="3.16406" x2="90.9141" y2="3.16406" stroke="#00FFA0" stroke-width="2.32031"/>
<line x1="90.9141" y1="1.16016" x2="88.0664" y2="1.16016" stroke="#00FFA0" stroke-width="2.32031"/>
</mask>
<g mask="url(#mask1_1346_1785)">
<g filter="url(#filter1_d_1346_1785)">
<path d="M0 0C0 0 63.75 0 65.3125 0C66.875 0 66.875 -1.00583e-07 68.125 1.22645C69.375 2.4529 82.9687 15.7905 82.9687 15.7905C82.9687 15.7905 82.9687 5.94099 82.9687 1.8761C82.9687 0.630439 82.5 0.714718 86.4062 0.156352C87.1875 0.0446783 88.0664 0.00304002 88.0664 0.00304002V4.32422L88.125 23.4141C88.125 23.4141 85 23.414 84.5312 23.4141C84.0625 23.4141 83.1719 23.0119 82.3437 22.2006C80.6204 20.5121 66.875 7.19172 66.875 7.19172V23.4141L61.7187 26.5409V4.32118H36.5625V8.91149H51.0937V12.9764H36.5625V19.0737C36.5625 19.0737 50.7812 19.0737 52.6562 19.0737C54.5312 19.0737 54.2307 18.9316 54.8026 21.1062C54.8341 21.2257 54.8629 21.3286 54.8874 21.4188C54.9723 21.7315 54.9162 22.1538 54.6875 22.4224C54.4978 22.6452 53.6836 23.4141 53.6836 23.4141H30.5859V4.32118H25.9375L7.48828 19.0898H22.9922L24.9961 23.4141H0V19.0898L17.8125 4.32118H0V0Z" fill="#4E4E4E"/>
<path fill-rule="evenodd" clip-rule="evenodd" d="M147.762 3.26953V7.06641C147.764 13.1309 141.223 13.6346 141.223 13.6346L151.875 23.4141H145.156L134.219 13.3945H129.199V23.4141H124.062V4.32118H109.063V23.4141L103.465 23.4171V4.32422H90.9141V0.00304002C90.9141 0.00304002 126.963 0.226546 145.355 0.312684C147.813 0.333404 147.762 2.63672 147.762 3.26953ZM143.125 4.32422L129.199 4.32118V9.38051H139.844C141.875 9.38051 143.125 9.06783 143.125 6.87904V4.32422Z" fill="#4E4E4E"/>
<path d="M156.768 15.7943C156.768 17.6704 157.236 19.7028 159.268 19.7028H169.424C171.924 19.7028 172.236 17.6704 172.236 15.7943C172.236 15.7943 172.236 6.22152 172.236 1.58575L176.924 0.316406C176.924 5.3727 176.924 17.6704 176.924 17.6704C176.924 23.455 172.236 23.4178 169.424 23.4178H159.268C156.768 23.4178 152.402 23.5034 152.402 17.7188C152.402 17.7188 152.402 5.52813 152.402 0.316406L156.768 2.79492V15.7943Z" fill="#4E4E4E"/>
</g>
</g>
<defs>
<filter id="filter0_d_1346_1785" x="-4.21875" y="-4.21875" width="185.361" height="34.9785" filterUnits="userSpaceOnUse" color-interpolation-filters="sRGB">
<feFlood flood-opacity="0" result="BackgroundImageFix"/>
<feColorMatrix in="SourceAlpha" type="matrix" values="0 0 0 0 0 0 0 0 0 0 0 0 0 0 0 0 0 0 127 0" result="hardAlpha"/>
<feOffset/>
<feGaussianBlur stdDeviation="2.10938"/>
<feComposite in2="hardAlpha" operator="out"/>
<feColorMatrix type="matrix" values="0 0 0 0 0 0 0 0 0 1 0 0 0 0 0.627451 0 0 0 1 0"/>
<feBlend mode="normal" in2="BackgroundImageFix" result="effect1_dropShadow_1346_1785"/>
<feBlend mode="normal" in="SourceGraphic" in2="effect1_dropShadow_1346_1785" result="shape"/>
</filter>
<filter id="filter1_d_1346_1785" x="-1.05469" y="-1.05469" width="179.033" height="28.6504" filterUnits="userSpaceOnUse" color-interpolation-filters="sRGB">
<feFlood flood-opacity="0" result="BackgroundImageFix"/>
<feColorMatrix in="SourceAlpha" type="matrix" values="0 0 0 0 0 0 0 0 0 0 0 0 0 0 0 0 0 0 127 0" result="hardAlpha"/>
<feOffset/>
<feGaussianBlur stdDeviation="0.527344"/>
<feComposite in2="hardAlpha" operator="out"/>
<feColorMatrix type="matrix" values="0 0 0 0 0 0 0 0 0 0 0 0 0 0 0 0 0 0 0.4 0"/>
<feBlend mode="normal" in2="BackgroundImageFix" result="effect1_dropShadow_1346_1785"/>
<feBlend mode="normal" in="SourceGraphic" in2="effect1_dropShadow_1346_1785" result="shape"/>
</filter>
</defs>
</svg>
